<?xml version="1.0" encoding="UTF-8" standalone="no"?>
<!DOCTYPE svg PUBLIC "-//W3C//DTD SVG 1.1//EN"
 "http://www.w3.org/Graphics/SVG/1.1/DTD/svg11.dtd">
<!-- Generated by graphviz version 2.43.0 (0)
 -->
<!-- Title: %3 Pages: 1 -->
<svg width="423pt" height="188pt"
 viewBox="0.00 0.00 423.00 188.00" xmlns="http://www.w3.org/2000/svg" xmlns:xlink="http://www.w3.org/1999/xlink">
<g id="graph0" class="graph" transform="scale(1 1) rotate(0) translate(4 184)">
<title>%3</title>
<!-- AND -->
<g id="node1" class="node operator,disabled">
<title>AND</title>
<path fill="#d0dce3" stroke="#d0dce3" d="M233.5,-180C233.5,-180 203.5,-180 203.5,-180 197.5,-180 191.5,-174 191.5,-168 191.5,-168 191.5,-156 191.5,-156 191.5,-150 197.5,-144 203.5,-144 203.5,-144 233.5,-144 233.5,-144 239.5,-144 245.5,-150 245.5,-156 245.5,-156 245.5,-168 245.5,-168 245.5,-174 239.5,-180 233.5,-180"/>
<text text-anchor="middle" x="218.5" y="-158.3" font-family="Inter,Arial" font-size="14.00" fill="#ffffff">AND</text>
</g>
<!-- eq1 -->
<g id="node2" class="node operator,disabled">
<title>eq1</title>
<path fill="#d0dce3" stroke="#d0dce3" d="M193,-108C193,-108 144,-108 144,-108 138,-108 132,-102 132,-96 132,-96 132,-84 132,-84 132,-78 138,-72 144,-72 144,-72 193,-72 193,-72 199,-72 205,-78 205,-84 205,-84 205,-96 205,-96 205,-102 199,-108 193,-108"/>
<text text-anchor="middle" x="168.5" y="-86.3" font-family="Inter,Arial" font-size="14.00" fill="#ffffff">EQUALS</text>
</g>
<!-- AND&#45;&gt;eq1 -->
<g id="edge1" class="edge disabled">
<title>AND&#45;&gt;eq1</title>
<path fill="none" stroke="#d0dce3" d="M206.14,-143.7C200.27,-135.47 193.13,-125.48 186.66,-116.42"/>
<polygon fill="#d0dce3" stroke="#d0dce3" points="189.38,-114.21 180.72,-108.1 183.68,-118.28 189.38,-114.21"/>
</g>
<!-- eq2 -->
<g id="node3" class="node operator,disabled">
<title>eq2</title>
<path fill="#d0dce3" stroke="#d0dce3" d="M293,-108C293,-108 244,-108 244,-108 238,-108 232,-102 232,-96 232,-96 232,-84 232,-84 232,-78 238,-72 244,-72 244,-72 293,-72 293,-72 299,-72 305,-78 305,-84 305,-84 305,-96 305,-96 305,-102 299,-108 293,-108"/>
<text text-anchor="middle" x="268.5" y="-86.3" font-family="Inter,Arial" font-size="14.00" fill="#ffffff">EQUALS</text>
</g>
<!-- AND&#45;&gt;eq2 -->
<g id="edge2" class="edge disabled">
<title>AND&#45;&gt;eq2</title>
<path fill="none" stroke="#d0dce3" d="M230.86,-143.7C236.73,-135.47 243.87,-125.48 250.34,-116.42"/>
<polygon fill="#d0dce3" stroke="#d0dce3" points="253.32,-118.28 256.28,-108.1 247.62,-114.21 253.32,-118.28"/>
</g>
<!-- categoryId -->
<g id="node4" class="node value,rm">
<title>categoryId</title>
<path fill="#fdb8c0" stroke="#923a41" d="M85,-36C85,-36 12,-36 12,-36 6,-36 0,-30 0,-24 0,-24 0,-12 0,-12 0,-6 6,0 12,0 12,0 85,0 85,0 91,0 97,-6 97,-12 97,-12 97,-24 97,-24 97,-30 91,-36 85,-36"/>
<text text-anchor="middle" x="48.5" y="-14.3" font-family="Inter,Arial" font-size="14.00" fill="#923a41">$categoryId</text>
</g>
<!-- eq1&#45;&gt;categoryId -->
<g id="edge3" class="edge disabled">
<title>eq1&#45;&gt;categoryId</title>
<path fill="none" stroke="#d0dce3" d="M139.14,-71.88C123.45,-62.72 103.94,-51.34 87.05,-41.48"/>
<polygon fill="#d0dce3" stroke="#d0dce3" points="88.37,-38.21 77.97,-36.19 84.84,-44.25 88.37,-38.21"/>
</g>
<!-- categoryValue -->
<g id="node6" class="node value,disabled">
<title>categoryValue</title>
<path fill="#ffffff" stroke="#d0dce3" d="M209.5,-36C209.5,-36 127.5,-36 127.5,-36 121.5,-36 115.5,-30 115.5,-24 115.5,-24 115.5,-12 115.5,-12 115.5,-6 121.5,0 127.5,0 127.5,0 209.5,0 209.5,0 215.5,0 221.5,-6 221.5,-12 221.5,-12 221.5,-24 221.5,-24 221.5,-30 215.5,-36 209.5,-36"/>
<text text-anchor="middle" x="168.5" y="-14.3" font-family="Inter,Arial" font-size="14.00" fill="#d0dce3">Rule.Num(10)</text>
</g>
<!-- eq1&#45;&gt;categoryValue -->
<g id="edge4" class="edge disabled">
<title>eq1&#45;&gt;categoryValue</title>
<path fill="none" stroke="#d0dce3" d="M168.5,-71.7C168.5,-63.98 168.5,-54.71 168.5,-46.11"/>
<polygon fill="#d0dce3" stroke="#d0dce3" points="172,-46.1 168.5,-36.1 165,-46.1 172,-46.1"/>
</g>
<!-- price -->
<g id="node5" class="node value,rm">
<title>price</title>
<path fill="#fdb8c0" stroke="#923a41" d="M285.5,-36C285.5,-36 251.5,-36 251.5,-36 245.5,-36 239.5,-30 239.5,-24 239.5,-24 239.5,-12 239.5,-12 239.5,-6 245.5,0 251.5,0 251.5,0 285.5,0 285.5,0 291.5,0 297.5,-6 297.5,-12 297.5,-12 297.5,-24 297.5,-24 297.5,-30 291.5,-36 285.5,-36"/>
<text text-anchor="middle" x="268.5" y="-14.3" font-family="Inter,Arial" font-size="14.00" fill="#923a41">$price</text>
</g>
<!-- eq2&#45;&gt;price -->
<g id="edge5" class="edge disabled">
<title>eq2&#45;&gt;price</title>
<path fill="none" stroke="#d0dce3" d="M268.5,-71.7C268.5,-63.98 268.5,-54.71 268.5,-46.11"/>
<polygon fill="#d0dce3" stroke="#d0dce3" points="272,-46.1 268.5,-36.1 265,-46.1 272,-46.1"/>
</g>
<!-- priceValue -->
<g id="node7" class="node value,disabled">
<title>priceValue</title>
<path fill="#ffffff" stroke="#d0dce3" d="M403,-36C403,-36 328,-36 328,-36 322,-36 316,-30 316,-24 316,-24 316,-12 316,-12 316,-6 322,0 328,0 328,0 403,0 403,0 409,0 415,-6 415,-12 415,-12 415,-24 415,-24 415,-30 409,-36 403,-36"/>
<text text-anchor="middle" x="365.5" y="-14.3" font-family="Inter,Arial" font-size="14.00" fill="#d0dce3">Rule.Num(3)</text>
</g>
<!-- eq2&#45;&gt;priceValue -->
<g id="edge6" class="edge disabled">
<title>eq2&#45;&gt;priceValue</title>
<path fill="none" stroke="#d0dce3" d="M292.48,-71.7C304.81,-62.8 320.02,-51.82 333.35,-42.2"/>
<polygon fill="#d0dce3" stroke="#d0dce3" points="335.74,-44.79 341.8,-36.1 331.64,-39.12 335.74,-44.79"/>
</g>
</g>
</svg>
