<?xml version="1.0" encoding="UTF-8" standalone="no"?>
<!DOCTYPE svg PUBLIC "-//W3C//DTD SVG 1.1//EN"
 "http://www.w3.org/Graphics/SVG/1.1/DTD/svg11.dtd">
<!-- Generated by graphviz version 2.43.0 (0)
 -->
<!-- Title: %3 Pages: 1 -->
<svg width="559pt" height="188pt"
 viewBox="0.00 0.00 559.00 188.00" xmlns="http://www.w3.org/2000/svg" xmlns:xlink="http://www.w3.org/1999/xlink">
<g id="graph0" class="graph" transform="scale(1 1) rotate(0) translate(4 184)">
<title>%3</title>
<!-- AND -->
<g id="node1" class="node operator,disabled">
<title>AND</title>
<path fill="#d0dce3" stroke="#d0dce3" d="M318.5,-180C318.5,-180 288.5,-180 288.5,-180 282.5,-180 276.5,-174 276.5,-168 276.5,-168 276.5,-156 276.5,-156 276.5,-150 282.5,-144 288.5,-144 288.5,-144 318.5,-144 318.5,-144 324.5,-144 330.5,-150 330.5,-156 330.5,-156 330.5,-168 330.5,-168 330.5,-174 324.5,-180 318.5,-180"/>
<text text-anchor="middle" x="303.5" y="-158.3" font-family="Inter,Arial" font-size="14.00" fill="#ffffff">AND</text>
</g>
<!-- eq1 -->
<g id="node2" class="node operator,rm">
<title>eq1</title>
<path fill="#fdb8c0" stroke="#923a41" d="M261,-108C261,-108 212,-108 212,-108 206,-108 200,-102 200,-96 200,-96 200,-84 200,-84 200,-78 206,-72 212,-72 212,-72 261,-72 261,-72 267,-72 273,-78 273,-84 273,-84 273,-96 273,-96 273,-102 267,-108 261,-108"/>
<text text-anchor="middle" x="236.5" y="-86.3" font-family="Inter,Arial" font-size="14.00" fill="#923a41">EQUALS</text>
</g>
<!-- AND&#45;&gt;eq1 -->
<g id="edge1" class="edge disabled">
<title>AND&#45;&gt;eq1</title>
<path fill="none" stroke="#d0dce3" d="M286.94,-143.7C278.82,-135.22 268.91,-124.86 260.03,-115.58"/>
<polygon fill="#d0dce3" stroke="#d0dce3" points="262.31,-112.91 252.87,-108.1 257.26,-117.75 262.31,-112.91"/>
</g>
<!-- eq2 -->
<g id="node3" class="node operator,rm">
<title>eq2</title>
<path fill="#fdb8c0" stroke="#923a41" d="M395,-108C395,-108 346,-108 346,-108 340,-108 334,-102 334,-96 334,-96 334,-84 334,-84 334,-78 340,-72 346,-72 346,-72 395,-72 395,-72 401,-72 407,-78 407,-84 407,-84 407,-96 407,-96 407,-102 401,-108 395,-108"/>
<text text-anchor="middle" x="370.5" y="-86.3" font-family="Inter,Arial" font-size="14.00" fill="#923a41">EQUALS</text>
</g>
<!-- AND&#45;&gt;eq2 -->
<g id="edge2" class="edge disabled">
<title>AND&#45;&gt;eq2</title>
<path fill="none" stroke="#d0dce3" d="M320.06,-143.7C328.18,-135.22 338.09,-124.86 346.97,-115.58"/>
<polygon fill="#d0dce3" stroke="#d0dce3" points="349.74,-117.75 354.13,-108.1 344.69,-112.91 349.74,-117.75"/>
</g>
<!-- categoryId -->
<g id="node4" class="node value,disabled">
<title>categoryId</title>
<path fill="#ffffff" stroke="#d0dce3" d="M153,-36C153,-36 12,-36 12,-36 6,-36 0,-30 0,-24 0,-24 0,-12 0,-12 0,-6 6,0 12,0 12,0 153,0 153,0 159,0 165,-6 165,-12 165,-12 165,-24 165,-24 165,-30 159,-36 153,-36"/>
<text text-anchor="middle" x="82.5" y="-14.3" font-family="Inter,Arial" font-size="14.00" fill="#d0dce3">Rule.Var(&quot;categoryId&quot;)</text>
</g>
<!-- eq1&#45;&gt;categoryId -->
<g id="edge3" class="edge disabled">
<title>eq1&#45;&gt;categoryId</title>
<path fill="none" stroke="#d0dce3" d="M199.61,-72.23C178.59,-62.68 152.03,-50.61 129.53,-40.38"/>
<polygon fill="#d0dce3" stroke="#d0dce3" points="130.71,-37.07 120.16,-36.12 127.81,-43.44 130.71,-37.07"/>
</g>
<!-- categoryValue -->
<g id="node6" class="node value,disabled">
<title>categoryValue</title>
<path fill="#ffffff" stroke="#d0dce3" d="M277.5,-36C277.5,-36 195.5,-36 195.5,-36 189.5,-36 183.5,-30 183.5,-24 183.5,-24 183.5,-12 183.5,-12 183.5,-6 189.5,0 195.5,0 195.5,0 277.5,0 277.5,0 283.5,0 289.5,-6 289.5,-12 289.5,-12 289.5,-24 289.5,-24 289.5,-30 283.5,-36 277.5,-36"/>
<text text-anchor="middle" x="236.5" y="-14.3" font-family="Inter,Arial" font-size="14.00" fill="#d0dce3">Rule.Num(10)</text>
</g>
<!-- eq1&#45;&gt;categoryValue -->
<g id="edge4" class="edge disabled">
<title>eq1&#45;&gt;categoryValue</title>
<path fill="none" stroke="#d0dce3" d="M236.5,-71.7C236.5,-63.98 236.5,-54.71 236.5,-46.11"/>
<polygon fill="#d0dce3" stroke="#d0dce3" points="240,-46.1 236.5,-36.1 233,-46.1 240,-46.1"/>
</g>
<!-- price -->
<g id="node5" class="node value,disabled">
<title>price</title>
<path fill="#ffffff" stroke="#d0dce3" d="M421.5,-36C421.5,-36 319.5,-36 319.5,-36 313.5,-36 307.5,-30 307.5,-24 307.5,-24 307.5,-12 307.5,-12 307.5,-6 313.5,0 319.5,0 319.5,0 421.5,0 421.5,0 427.5,0 433.5,-6 433.5,-12 433.5,-12 433.5,-24 433.5,-24 433.5,-30 427.5,-36 421.5,-36"/>
<text text-anchor="middle" x="370.5" y="-14.3" font-family="Inter,Arial" font-size="14.00" fill="#d0dce3">Rule.Var(&quot;price&quot;)</text>
</g>
<!-- eq2&#45;&gt;price -->
<g id="edge5" class="edge disabled">
<title>eq2&#45;&gt;price</title>
<path fill="none" stroke="#d0dce3" d="M370.5,-71.7C370.5,-63.98 370.5,-54.71 370.5,-46.11"/>
<polygon fill="#d0dce3" stroke="#d0dce3" points="374,-46.1 370.5,-36.1 367,-46.1 374,-46.1"/>
</g>
<!-- priceValue -->
<g id="node7" class="node value,disabled">
<title>priceValue</title>
<path fill="#ffffff" stroke="#d0dce3" d="M539,-36C539,-36 464,-36 464,-36 458,-36 452,-30 452,-24 452,-24 452,-12 452,-12 452,-6 458,0 464,0 464,0 539,0 539,0 545,0 551,-6 551,-12 551,-12 551,-24 551,-24 551,-30 545,-36 539,-36"/>
<text text-anchor="middle" x="501.5" y="-14.3" font-family="Inter,Arial" font-size="14.00" fill="#d0dce3">Rule.Num(3)</text>
</g>
<!-- eq2&#45;&gt;priceValue -->
<g id="edge6" class="edge disabled">
<title>eq2&#45;&gt;priceValue</title>
<path fill="none" stroke="#d0dce3" d="M402.55,-71.88C419.99,-62.55 441.77,-50.92 460.44,-40.94"/>
<polygon fill="#d0dce3" stroke="#d0dce3" points="462.16,-43.99 469.33,-36.19 458.86,-37.82 462.16,-43.99"/>
</g>
</g>
</svg>
