<?xml version="1.0" encoding="UTF-8" standalone="no"?>
<!DOCTYPE svg PUBLIC "-//W3C//DTD SVG 1.1//EN"
 "http://www.w3.org/Graphics/SVG/1.1/DTD/svg11.dtd">
<!-- Generated by graphviz version 2.43.0 (0)
 -->
<!-- Title: %3 Pages: 1 -->
<svg width="337pt" height="98pt"
 viewBox="0.00 0.00 336.72 98.00" xmlns="http://www.w3.org/2000/svg" xmlns:xlink="http://www.w3.org/1999/xlink">
<g id="graph0" class="graph" transform="scale(1 1) rotate(0) translate(4 94)">
<title>%3</title>
<!-- document -->
<g id="node1" class="node">
<title>document</title>
<path fill="#ffffff" stroke="#586e75" d="M12,-10.5C12,-10.5 108,-10.5 108,-10.5 114,-10.5 120,-16.5 120,-22.5 120,-22.5 120,-67.5 120,-67.5 120,-73.5 114,-79.5 108,-79.5 108,-79.5 12,-79.5 12,-79.5 6,-79.5 0,-73.5 0,-67.5 0,-67.5 0,-22.5 0,-22.5 0,-16.5 6,-10.5 12,-10.5"/>
<text text-anchor="middle" x="60" y="-64.3" font-family="Inter,Arial" font-size="14.00" fill="#586e75">$categoryId: 10</text>
<polyline fill="none" stroke="#586e75" points="0,-56.5 120,-56.5 "/>
<text text-anchor="middle" x="60" y="-41.3" font-family="Inter,Arial" font-size="14.00" fill="#586e75">$price: 3</text>
<polyline fill="none" stroke="#586e75" points="0,-33.5 120,-33.5 "/>
<text text-anchor="middle" x="60" y="-18.3" font-family="Inter,Arial" font-size="14.00" fill="#586e75">...</text>
</g>
<!-- rule -->
<g id="node2" class="node choice">
<title>rule</title>
<polygon fill="#586e75" stroke="#586e75" points="197.36,-63 156.14,-45 197.36,-27 238.59,-45 197.36,-63"/>
<text text-anchor="middle" x="197.36" y="-41.3" font-family="Inter,Arial" font-size="14.00" fill="#ffffff">Rule</text>
</g>
<!-- document&#45;&gt;rule -->
<g id="edge1" class="edge">
<title>document&#45;&gt;rule</title>
<path fill="none" stroke="#586e75" d="M120.37,-45C128.86,-45 137.53,-45 145.83,-45"/>
<polygon fill="#586e75" stroke="#586e75" points="146.11,-48.5 156.11,-45 146.11,-41.5 146.11,-48.5"/>
</g>
<!-- true -->
<g id="node3" class="node">
<title>true</title>
<path fill="#ffffff" stroke="#586e75" d="M316.72,-90C316.72,-90 286.72,-90 286.72,-90 280.72,-90 274.72,-84 274.72,-78 274.72,-78 274.72,-66 274.72,-66 274.72,-60 280.72,-54 286.72,-54 286.72,-54 316.72,-54 316.72,-54 322.72,-54 328.72,-60 328.72,-66 328.72,-66 328.72,-78 328.72,-78 328.72,-84 322.72,-90 316.72,-90"/>
<text text-anchor="middle" x="301.72" y="-68.3" font-family="Inter,Arial" font-size="14.00" fill="#586e75">true</text>
</g>
<!-- rule&#45;&gt;true -->
<g id="edge2" class="edge choice">
<title>rule&#45;&gt;true</title>
<path fill="none" stroke="#586e75" stroke-dasharray="5,2" d="M223.67,-51.67C236.03,-54.93 251.12,-58.92 264.66,-62.49"/>
<polygon fill="#586e75" stroke="#586e75" points="264.08,-65.95 274.64,-65.12 265.87,-59.19 264.08,-65.95"/>
</g>
<!-- false -->
<!-- rule&#45;&gt;false -->
</g>
</svg>
