<?xml version="1.0" encoding="UTF-8" standalone="no"?>
<!DOCTYPE svg PUBLIC "-//W3C//DTD SVG 1.1//EN"
 "http://www.w3.org/Graphics/SVG/1.1/DTD/svg11.dtd">
<!-- Generated by graphviz version 2.43.0 (0)
 -->
<!-- Title: %3 Pages: 1 -->
<svg width="337pt" height="98pt"
 viewBox="0.00 0.00 336.72 98.00" xmlns="http://www.w3.org/2000/svg" xmlns:xlink="http://www.w3.org/1999/xlink">
<g id="graph0" class="graph" transform="scale(1 1) rotate(0) translate(4 94)">
<title>%3</title>
<!-- document -->
<g id="node1" class="node">
<title>document</title>
<path fill="#ffffff" stroke="#586e75" d="M12,-10.5C12,-10.5 108,-10.5 108,-10.5 114,-10.5 120,-16.5 120,-22.5 120,-22.5 120,-67.5 120,-67.5 120,-73.5 114,-79.5 108,-79.5 108,-79.5 12,-79.5 12,-79.5 6,-79.5 0,-73.5 0,-67.5 0,-67.5 0,-22.5 0,-22.5 0,-16.5 6,-10.5 12,-10.5"/>
<text text-anchor="middle" x="60" y="-64.3" font-family="Inter,Arial" font-size="14.00" fill="#586e75">$categoryId: 10</text>
<polyline fill="none" stroke="#586e75" points="0,-56.5 120,-56.5 "/>
<text text-anchor="middle" x="60" y="-41.3" font-family="Inter,Arial" font-size="14.00" fill="#586e75">$price: 3</text>
<polyline fill="none" stroke="#586e75" points="0,-33.5 120,-33.5 "/>
<text text-anchor="middle" x="60" y="-18.3" font-family="Inter,Arial" font-size="14.00" fill="#586e75">...</text>
</g>
<!-- rule -->
<!-- document&#45;&gt;rule -->
<!-- true -->
<!-- rule&#45;&gt;true -->
<!-- false -->
<!-- rule&#45;&gt;false -->
</g>
</svg>
