<?xml version="1.0" encoding="UTF-8" standalone="no"?>
<!DOCTYPE svg PUBLIC "-//W3C//DTD SVG 1.1//EN"
 "http://www.w3.org/Graphics/SVG/1.1/DTD/svg11.dtd">
<!-- Generated by graphviz version 2.43.0 (0)
 -->
<!-- Title: %3 Pages: 1 -->
<svg width="353pt" height="98pt"
 viewBox="0.00 0.00 352.72 98.00" xmlns="http://www.w3.org/2000/svg" xmlns:xlink="http://www.w3.org/1999/xlink">
<g id="graph0" class="graph" transform="scale(1 1) rotate(0) translate(4 94)">
<title>%3</title>
<!-- document -->
<g id="node1" class="node">
<title>document</title>
<path fill="#ffffff" stroke="#586e75" d="M12,-10.5C12,-10.5 108,-10.5 108,-10.5 114,-10.5 120,-16.5 120,-22.5 120,-22.5 120,-67.5 120,-67.5 120,-73.5 114,-79.5 108,-79.5 108,-79.5 12,-79.5 12,-79.5 6,-79.5 0,-73.5 0,-67.5 0,-67.5 0,-22.5 0,-22.5 0,-16.5 6,-10.5 12,-10.5"/>
<text text-anchor="middle" x="60" y="-64.3" font-family="Inter,Arial" font-size="14.00" fill="#586e75">$categoryId: 10</text>
<polyline fill="none" stroke="#586e75" points="0,-56.5 120,-56.5 "/>
<text text-anchor="middle" x="60" y="-41.3" font-family="Inter,Arial" font-size="14.00" fill="#586e75">$price: 3</text>
<polyline fill="none" stroke="#586e75" points="0,-33.5 120,-33.5 "/>
<text text-anchor="middle" x="60" y="-18.3" font-family="Inter,Arial" font-size="14.00" fill="#586e75">...</text>
</g>
<!-- rule -->
<g id="node2" class="node choice">
<title>rule</title>
<polygon fill="#586e75" stroke="#586e75" points="197.36,-63 156.14,-45 197.36,-27 238.59,-45 197.36,-63"/>
<text text-anchor="middle" x="197.36" y="-41.3" font-family="Inter,Arial" font-size="14.00" fill="#ffffff">Rule</text>
</g>
<!-- document&#45;&gt;rule -->
<g id="edge1" class="edge">
<title>document&#45;&gt;rule</title>
<path fill="none" stroke="#586e75" d="M120.37,-45C128.86,-45 137.53,-45 145.83,-45"/>
<polygon fill="#586e75" stroke="#586e75" points="146.11,-48.5 156.11,-45 146.11,-41.5 146.11,-48.5"/>
</g>
<!-- Boolean -->
<g id="node3" class="node">
<title>Boolean</title>
<path fill="#ffffff" stroke="#586e75" d="M332.72,-90C332.72,-90 286.72,-90 286.72,-90 280.72,-90 274.72,-84 274.72,-78 274.72,-78 274.72,-66 274.72,-66 274.72,-60 280.72,-54 286.72,-54 286.72,-54 332.72,-54 332.72,-54 338.72,-54 344.72,-60 344.72,-66 344.72,-66 344.72,-78 344.72,-78 344.72,-84 338.72,-90 332.72,-90"/>
<text text-anchor="middle" x="309.72" y="-68.3" font-family="Inter,Arial" font-size="14.00" fill="#586e75">Boolean</text>
</g>
<!-- rule&#45;&gt;Boolean -->
<g id="edge2" class="edge choice">
<title>rule&#45;&gt;Boolean</title>
<path fill="none" stroke="#586e75" stroke-dasharray="5,2" d="M224.24,-51.33C236.34,-54.29 251.08,-57.9 264.85,-61.27"/>
<polygon fill="#586e75" stroke="#586e75" points="264.1,-64.69 274.65,-63.66 265.77,-57.89 264.1,-64.69"/>
</g>
<!-- Int -->
<g id="node4" class="node">
<title>Int</title>
<path fill="#ffffff" stroke="#586e75" d="M324.72,-36C324.72,-36 294.72,-36 294.72,-36 288.72,-36 282.72,-30 282.72,-24 282.72,-24 282.72,-12 282.72,-12 282.72,-6 288.72,0 294.72,0 294.72,0 324.72,0 324.72,0 330.72,0 336.72,-6 336.72,-12 336.72,-12 336.72,-24 336.72,-24 336.72,-30 330.72,-36 324.72,-36"/>
<text text-anchor="middle" x="309.72" y="-14.3" font-family="Inter,Arial" font-size="14.00" fill="#586e75">Int</text>
</g>
<!-- rule&#45;&gt;Int -->
<g id="edge3" class="edge choice">
<title>rule&#45;&gt;Int</title>
<path fill="none" stroke="#586e75" stroke-dasharray="5,2" d="M224.24,-38.67C238.66,-35.14 256.85,-30.69 272.65,-26.82"/>
<polygon fill="#586e75" stroke="#586e75" points="273.75,-30.16 282.63,-24.38 272.08,-23.36 273.75,-30.16"/>
</g>
</g>
</svg>
