<?xml version="1.0" encoding="UTF-8" standalone="no"?>
<!DOCTYPE svg PUBLIC "-//W3C//DTD SVG 1.1//EN"
 "http://www.w3.org/Graphics/SVG/1.1/DTD/svg11.dtd">
<!-- Generated by graphviz version 2.43.0 (0)
 -->
<!-- Title: %3 Pages: 1 -->
<svg width="421pt" height="188pt"
 viewBox="0.00 0.00 420.50 188.00" xmlns="http://www.w3.org/2000/svg" xmlns:xlink="http://www.w3.org/1999/xlink">
<g id="graph0" class="graph" transform="scale(1 1) rotate(0) translate(4 184)">
<title>%3</title>
<!-- and -->
<g id="node1" class="node operator">
<title>and</title>
<path fill="#586e75" stroke="#586e75" d="M273.5,-180C273.5,-180 243.5,-180 243.5,-180 237.5,-180 231.5,-174 231.5,-168 231.5,-168 231.5,-156 231.5,-156 231.5,-150 237.5,-144 243.5,-144 243.5,-144 273.5,-144 273.5,-144 279.5,-144 285.5,-150 285.5,-156 285.5,-156 285.5,-168 285.5,-168 285.5,-174 279.5,-180 273.5,-180"/>
<text text-anchor="middle" x="258.5" y="-158.3" font-family="Inter,Arial" font-size="14.00" fill="#ffffff">and</text>
</g>
<!-- eq1 -->
<g id="node2" class="node operator">
<title>eq1</title>
<path fill="#586e75" stroke="#586e75" d="M231.5,-108C231.5,-108 201.5,-108 201.5,-108 195.5,-108 189.5,-102 189.5,-96 189.5,-96 189.5,-84 189.5,-84 189.5,-78 195.5,-72 201.5,-72 201.5,-72 231.5,-72 231.5,-72 237.5,-72 243.5,-78 243.5,-84 243.5,-84 243.5,-96 243.5,-96 243.5,-102 237.5,-108 231.5,-108"/>
<text text-anchor="middle" x="216.5" y="-86.3" font-family="Inter,Arial" font-size="14.00" fill="#ffffff">equal</text>
</g>
<!-- and&#45;&gt;eq1 -->
<g id="edge1" class="edge">
<title>and&#45;&gt;eq1</title>
<path fill="none" stroke="#586e75" d="M248.12,-143.7C243.24,-135.56 237.31,-125.69 231.92,-116.7"/>
<polygon fill="#586e75" stroke="#586e75" points="234.91,-114.88 226.76,-108.1 228.91,-118.48 234.91,-114.88"/>
</g>
<!-- eq2 -->
<g id="node3" class="node operator">
<title>eq2</title>
<path fill="#586e75" stroke="#586e75" d="M316.5,-108C316.5,-108 286.5,-108 286.5,-108 280.5,-108 274.5,-102 274.5,-96 274.5,-96 274.5,-84 274.5,-84 274.5,-78 280.5,-72 286.5,-72 286.5,-72 316.5,-72 316.5,-72 322.5,-72 328.5,-78 328.5,-84 328.5,-84 328.5,-96 328.5,-96 328.5,-102 322.5,-108 316.5,-108"/>
<text text-anchor="middle" x="301.5" y="-86.3" font-family="Inter,Arial" font-size="14.00" fill="#ffffff">equal</text>
</g>
<!-- and&#45;&gt;eq2 -->
<g id="edge2" class="edge">
<title>and&#45;&gt;eq2</title>
<path fill="none" stroke="#586e75" d="M269.13,-143.7C274.13,-135.56 280.19,-125.69 285.71,-116.7"/>
<polygon fill="#586e75" stroke="#586e75" points="288.74,-118.46 290.99,-108.1 282.78,-114.79 288.74,-118.46"/>
</g>
<!-- categoryId -->
<g id="node4" class="node value">
<title>categoryId</title>
<path fill="#ffffff" stroke="#586e75" d="M151,-36C151,-36 12,-36 12,-36 6,-36 0,-30 0,-24 0,-24 0,-12 0,-12 0,-6 6,0 12,0 12,0 151,0 151,0 157,0 163,-6 163,-12 163,-12 163,-24 163,-24 163,-30 157,-36 151,-36"/>
<text text-anchor="middle" x="81.5" y="-14.3" font-family="Inter,Arial" font-size="14.00" fill="#586e75">variable(&quot;categoryId&quot;)</text>
</g>
<!-- eq1&#45;&gt;categoryId -->
<g id="edge3" class="edge">
<title>eq1&#45;&gt;categoryId</title>
<path fill="none" stroke="#586e75" d="M189.18,-74.83C170.3,-65.05 144.84,-51.84 123.41,-40.73"/>
<polygon fill="#586e75" stroke="#586e75" points="124.99,-37.61 114.5,-36.11 121.77,-43.82 124.99,-37.61"/>
</g>
<!-- categoryValue -->
<g id="node6" class="node value">
<title>categoryValue</title>
<path fill="#ffffff" stroke="#586e75" d="M240,-36C240,-36 193,-36 193,-36 187,-36 181,-30 181,-24 181,-24 181,-12 181,-12 181,-6 187,0 193,0 193,0 240,0 240,0 246,0 252,-6 252,-12 252,-12 252,-24 252,-24 252,-30 246,-36 240,-36"/>
<text text-anchor="middle" x="216.5" y="-14.3" font-family="Inter,Arial" font-size="14.00" fill="#586e75">num(10)</text>
</g>
<!-- eq1&#45;&gt;categoryValue -->
<g id="edge4" class="edge">
<title>eq1&#45;&gt;categoryValue</title>
<path fill="none" stroke="#586e75" d="M216.5,-71.7C216.5,-63.98 216.5,-54.71 216.5,-46.11"/>
<polygon fill="#586e75" stroke="#586e75" points="220,-46.1 216.5,-36.1 213,-46.1 220,-46.1"/>
</g>
<!-- one1 -->
<g id="node5" class="node value">
<title>one1</title>
<path fill="#ffffff" stroke="#586e75" d="M320.5,-36C320.5,-36 282.5,-36 282.5,-36 276.5,-36 270.5,-30 270.5,-24 270.5,-24 270.5,-12 270.5,-12 270.5,-6 276.5,0 282.5,0 282.5,0 320.5,0 320.5,0 326.5,0 332.5,-6 332.5,-12 332.5,-12 332.5,-24 332.5,-24 332.5,-30 326.5,-36 320.5,-36"/>
<text text-anchor="middle" x="301.5" y="-14.3" font-family="Inter,Arial" font-size="14.00" fill="#586e75">num(1)</text>
</g>
<!-- eq2&#45;&gt;one1 -->
<g id="edge5" class="edge">
<title>eq2&#45;&gt;one1</title>
<path fill="none" stroke="#586e75" d="M301.5,-71.7C301.5,-63.98 301.5,-54.71 301.5,-46.11"/>
<polygon fill="#586e75" stroke="#586e75" points="305,-46.1 301.5,-36.1 298,-46.1 305,-46.1"/>
</g>
<!-- one2 -->
<g id="node7" class="node value">
<title>one2</title>
<path fill="#ffffff" stroke="#586e75" d="M400.5,-36C400.5,-36 362.5,-36 362.5,-36 356.5,-36 350.5,-30 350.5,-24 350.5,-24 350.5,-12 350.5,-12 350.5,-6 356.5,0 362.5,0 362.5,0 400.5,0 400.5,0 406.5,0 412.5,-6 412.5,-12 412.5,-12 412.5,-24 412.5,-24 412.5,-30 406.5,-36 400.5,-36"/>
<text text-anchor="middle" x="381.5" y="-14.3" font-family="Inter,Arial" font-size="14.00" fill="#586e75">num(1)</text>
</g>
<!-- eq2&#45;&gt;one2 -->
<g id="edge6" class="edge">
<title>eq2&#45;&gt;one2</title>
<path fill="none" stroke="#586e75" d="M321.28,-71.7C331.25,-62.97 343.51,-52.24 354.36,-42.75"/>
<polygon fill="#586e75" stroke="#586e75" points="356.73,-45.32 361.95,-36.1 352.12,-40.06 356.73,-45.32"/>
</g>
</g>
</svg>
