<?xml version="1.0" encoding="UTF-8" standalone="no"?>
<!DOCTYPE svg PUBLIC "-//W3C//DTD SVG 1.1//EN"
 "http://www.w3.org/Graphics/SVG/1.1/DTD/svg11.dtd">
<!-- Generated by graphviz version 2.43.0 (0)
 -->
<!-- Title: %3 Pages: 1 -->
<svg width="528pt" height="188pt"
 viewBox="0.00 0.00 528.00 188.00" xmlns="http://www.w3.org/2000/svg" xmlns:xlink="http://www.w3.org/1999/xlink">
<g id="graph0" class="graph" transform="scale(1 1) rotate(0) translate(4 184)">
<title>%3</title>
<!-- and -->
<g id="node1" class="node operator,disabled">
<title>and</title>
<path fill="#d0dce3" stroke="#d0dce3" d="M322.5,-180C322.5,-180 270.5,-180 270.5,-180 264.5,-180 258.5,-174 258.5,-168 258.5,-168 258.5,-156 258.5,-156 258.5,-150 264.5,-144 270.5,-144 270.5,-144 322.5,-144 322.5,-144 328.5,-144 334.5,-150 334.5,-156 334.5,-156 334.5,-168 334.5,-168 334.5,-174 328.5,-180 322.5,-180"/>
<text text-anchor="middle" x="296.5" y="-158.3" font-family="Inter,Arial" font-size="14.00" fill="#ffffff">Rule.And</text>
</g>
<!-- eq1 -->
<g id="node2" class="node operator,disabled">
<title>eq1</title>
<path fill="#d0dce3" stroke="#d0dce3" d="M257,-108C257,-108 216,-108 216,-108 210,-108 204,-102 204,-96 204,-96 204,-84 204,-84 204,-78 210,-72 216,-72 216,-72 257,-72 257,-72 263,-72 269,-78 269,-84 269,-84 269,-96 269,-96 269,-102 263,-108 257,-108"/>
<text text-anchor="middle" x="236.5" y="-86.3" font-family="Inter,Arial" font-size="14.00" fill="#ffffff">Rule.Eq</text>
</g>
<!-- and&#45;&gt;eq1 -->
<g id="edge1" class="edge disabled">
<title>and&#45;&gt;eq1</title>
<path fill="none" stroke="#d0dce3" d="M281.67,-143.7C274.48,-135.3 265.7,-125.07 257.81,-115.86"/>
<polygon fill="#d0dce3" stroke="#d0dce3" points="260.33,-113.42 251.16,-108.1 255.01,-117.97 260.33,-113.42"/>
</g>
<!-- eq2 -->
<g id="node3" class="node operator,disabled">
<title>eq2</title>
<path fill="#d0dce3" stroke="#d0dce3" d="M377,-108C377,-108 336,-108 336,-108 330,-108 324,-102 324,-96 324,-96 324,-84 324,-84 324,-78 330,-72 336,-72 336,-72 377,-72 377,-72 383,-72 389,-78 389,-84 389,-84 389,-96 389,-96 389,-102 383,-108 377,-108"/>
<text text-anchor="middle" x="356.5" y="-86.3" font-family="Inter,Arial" font-size="14.00" fill="#ffffff">Rule.Eq</text>
</g>
<!-- and&#45;&gt;eq2 -->
<g id="edge2" class="edge disabled">
<title>and&#45;&gt;eq2</title>
<path fill="none" stroke="#d0dce3" d="M311.33,-143.7C318.52,-135.3 327.3,-125.07 335.19,-115.86"/>
<polygon fill="#d0dce3" stroke="#d0dce3" points="337.99,-117.97 341.84,-108.1 332.67,-113.42 337.99,-117.97"/>
</g>
<!-- categoryId -->
<g id="node4" class="node value">
<title>categoryId</title>
<path fill="#ffffff" stroke="#586e75" d="M153,-36C153,-36 12,-36 12,-36 6,-36 0,-30 0,-24 0,-24 0,-12 0,-12 0,-6 6,0 12,0 12,0 153,0 153,0 159,0 165,-6 165,-12 165,-12 165,-24 165,-24 165,-30 159,-36 153,-36"/>
<text text-anchor="middle" x="82.5" y="-14.3" font-family="Inter,Arial" font-size="14.00" fill="#586e75">Rule.Var(&quot;categoryId&quot;)</text>
</g>
<!-- eq1&#45;&gt;categoryId -->
<g id="edge3" class="edge disabled">
<title>eq1&#45;&gt;categoryId</title>
<path fill="none" stroke="#d0dce3" d="M203.84,-74.15C182.17,-64.31 153.4,-51.23 129.31,-40.28"/>
<polygon fill="#d0dce3" stroke="#d0dce3" points="130.54,-36.99 119.99,-36.04 127.64,-43.36 130.54,-36.99"/>
</g>
<!-- categoryValue -->
<g id="node6" class="node value">
<title>categoryValue</title>
<path fill="#ffffff" stroke="#586e75" d="M277.5,-36C277.5,-36 195.5,-36 195.5,-36 189.5,-36 183.5,-30 183.5,-24 183.5,-24 183.5,-12 183.5,-12 183.5,-6 189.5,0 195.5,0 195.5,0 277.5,0 277.5,0 283.5,0 289.5,-6 289.5,-12 289.5,-12 289.5,-24 289.5,-24 289.5,-30 283.5,-36 277.5,-36"/>
<text text-anchor="middle" x="236.5" y="-14.3" font-family="Inter,Arial" font-size="14.00" fill="#586e75">Rule.Num(10)</text>
</g>
<!-- eq1&#45;&gt;categoryValue -->
<g id="edge4" class="edge disabled">
<title>eq1&#45;&gt;categoryValue</title>
<path fill="none" stroke="#d0dce3" d="M236.5,-71.7C236.5,-63.98 236.5,-54.71 236.5,-46.11"/>
<polygon fill="#d0dce3" stroke="#d0dce3" points="240,-46.1 236.5,-36.1 233,-46.1 240,-46.1"/>
</g>
<!-- one1 -->
<g id="node5" class="node value">
<title>one1</title>
<path fill="#ffffff" stroke="#586e75" d="M393,-36C393,-36 320,-36 320,-36 314,-36 308,-30 308,-24 308,-24 308,-12 308,-12 308,-6 314,0 320,0 320,0 393,0 393,0 399,0 405,-6 405,-12 405,-12 405,-24 405,-24 405,-30 399,-36 393,-36"/>
<text text-anchor="middle" x="356.5" y="-14.3" font-family="Inter,Arial" font-size="14.00" fill="#586e75">Rule.Num(1)</text>
</g>
<!-- eq2&#45;&gt;one1 -->
<g id="edge5" class="edge disabled">
<title>eq2&#45;&gt;one1</title>
<path fill="none" stroke="#d0dce3" d="M356.5,-71.7C356.5,-63.98 356.5,-54.71 356.5,-46.11"/>
<polygon fill="#d0dce3" stroke="#d0dce3" points="360,-46.1 356.5,-36.1 353,-46.1 360,-46.1"/>
</g>
<!-- one2 -->
<g id="node7" class="node value">
<title>one2</title>
<path fill="#ffffff" stroke="#586e75" d="M508,-36C508,-36 435,-36 435,-36 429,-36 423,-30 423,-24 423,-24 423,-12 423,-12 423,-6 429,0 435,0 435,0 508,0 508,0 514,0 520,-6 520,-12 520,-12 520,-24 520,-24 520,-30 514,-36 508,-36"/>
<text text-anchor="middle" x="471.5" y="-14.3" font-family="Inter,Arial" font-size="14.00" fill="#586e75">Rule.Num(1)</text>
</g>
<!-- eq2&#45;&gt;one2 -->
<g id="edge6" class="edge disabled">
<title>eq2&#45;&gt;one2</title>
<path fill="none" stroke="#d0dce3" d="M384.63,-71.88C399.67,-62.72 418.37,-51.34 434.56,-41.48"/>
<polygon fill="#d0dce3" stroke="#d0dce3" points="436.54,-44.38 443.26,-36.19 432.9,-38.4 436.54,-44.38"/>
</g>
</g>
</svg>
