<?xml version="1.0" encoding="UTF-8" standalone="no"?>
<!DOCTYPE svg PUBLIC "-//W3C//DTD SVG 1.1//EN"
 "http://www.w3.org/Graphics/SVG/1.1/DTD/svg11.dtd">
<!-- Generated by graphviz version 2.43.0 (0)
 -->
<!-- Title: %3 Pages: 1 -->
<svg width="422pt" height="188pt"
 viewBox="0.00 0.00 421.50 188.00" xmlns="http://www.w3.org/2000/svg" xmlns:xlink="http://www.w3.org/1999/xlink">
<g id="graph0" class="graph" transform="scale(1 1) rotate(0) translate(4 184)">
<title>%3</title>
<!-- and -->
<g id="node1" class="node operator,disabled">
<title>and</title>
<path fill="#d0dce3" stroke="#d0dce3" d="M273.5,-180C273.5,-180 243.5,-180 243.5,-180 237.5,-180 231.5,-174 231.5,-168 231.5,-168 231.5,-156 231.5,-156 231.5,-150 237.5,-144 243.5,-144 243.5,-144 273.5,-144 273.5,-144 279.5,-144 285.5,-150 285.5,-156 285.5,-156 285.5,-168 285.5,-168 285.5,-174 279.5,-180 273.5,-180"/>
<text text-anchor="middle" x="258.5" y="-158.3" font-family="Inter,Arial" font-size="14.00" fill="#ffffff">and</text>
</g>
<!-- eq1 -->
<g id="node2" class="node operator,disabled">
<title>eq1</title>
<path fill="#d0dce3" stroke="#d0dce3" d="M230.5,-108C230.5,-108 200.5,-108 200.5,-108 194.5,-108 188.5,-102 188.5,-96 188.5,-96 188.5,-84 188.5,-84 188.5,-78 194.5,-72 200.5,-72 200.5,-72 230.5,-72 230.5,-72 236.5,-72 242.5,-78 242.5,-84 242.5,-84 242.5,-96 242.5,-96 242.5,-102 236.5,-108 230.5,-108"/>
<text text-anchor="middle" x="215.5" y="-86.3" font-family="Inter,Arial" font-size="14.00" fill="#ffffff">equal</text>
</g>
<!-- and&#45;&gt;eq1 -->
<g id="edge1" class="edge disabled">
<title>and&#45;&gt;eq1</title>
<path fill="none" stroke="#d0dce3" d="M247.87,-143.7C242.87,-135.56 236.81,-125.69 231.29,-116.7"/>
<polygon fill="#d0dce3" stroke="#d0dce3" points="234.22,-114.79 226.01,-108.1 228.26,-118.46 234.22,-114.79"/>
</g>
<!-- eq2 -->
<g id="node3" class="node value">
<title>eq2</title>
<path fill="#ffffff" stroke="#586e75" d="M332,-108C332,-108 273,-108 273,-108 267,-108 261,-102 261,-96 261,-96 261,-84 261,-84 261,-78 267,-72 273,-72 273,-72 332,-72 332,-72 338,-72 344,-78 344,-84 344,-84 344,-96 344,-96 344,-102 338,-108 332,-108"/>
<text text-anchor="middle" x="302.5" y="-86.3" font-family="Inter,Arial" font-size="14.00" fill="#586e75">bool(true)</text>
</g>
<!-- and&#45;&gt;eq2 -->
<g id="edge2" class="edge disabled">
<title>and&#45;&gt;eq2</title>
<path fill="none" stroke="#d0dce3" d="M269.38,-143.7C274.49,-135.56 280.7,-125.69 286.34,-116.7"/>
<polygon fill="#d0dce3" stroke="#d0dce3" points="289.39,-118.43 291.75,-108.1 283.46,-114.71 289.39,-118.43"/>
</g>
<!-- categoryId -->
<g id="node4" class="node value,disabled">
<title>categoryId</title>
<path fill="#ffffff" stroke="#d0dce3" d="M151,-36C151,-36 12,-36 12,-36 6,-36 0,-30 0,-24 0,-24 0,-12 0,-12 0,-6 6,0 12,0 12,0 151,0 151,0 157,0 163,-6 163,-12 163,-12 163,-24 163,-24 163,-30 157,-36 151,-36"/>
<text text-anchor="middle" x="81.5" y="-14.3" font-family="Inter,Arial" font-size="14.00" fill="#d0dce3">variable(&quot;categoryId&quot;)</text>
</g>
<!-- eq1&#45;&gt;categoryId -->
<g id="edge3" class="edge disabled">
<title>eq1&#45;&gt;categoryId</title>
<path fill="none" stroke="#d0dce3" d="M188.38,-74.83C169.73,-65.09 144.59,-51.96 123.38,-40.88"/>
<polygon fill="#d0dce3" stroke="#d0dce3" points="124.74,-37.64 114.26,-36.11 121.5,-43.85 124.74,-37.64"/>
</g>
<!-- categoryValue -->
<g id="node6" class="node value,disabled">
<title>categoryValue</title>
<path fill="#ffffff" stroke="#d0dce3" d="M240,-36C240,-36 193,-36 193,-36 187,-36 181,-30 181,-24 181,-24 181,-12 181,-12 181,-6 187,0 193,0 193,0 240,0 240,0 246,0 252,-6 252,-12 252,-12 252,-24 252,-24 252,-30 246,-36 240,-36"/>
<text text-anchor="middle" x="216.5" y="-14.3" font-family="Inter,Arial" font-size="14.00" fill="#d0dce3">num(10)</text>
</g>
<!-- eq1&#45;&gt;categoryValue -->
<g id="edge4" class="edge disabled">
<title>eq1&#45;&gt;categoryValue</title>
<path fill="none" stroke="#d0dce3" d="M215.75,-71.7C215.86,-63.98 215.99,-54.71 216.11,-46.11"/>
<polygon fill="#d0dce3" stroke="#d0dce3" points="219.61,-46.15 216.26,-36.1 212.61,-46.05 219.61,-46.15"/>
</g>
<!-- one1 -->
<!-- eq2&#45;&gt;one1 -->
<!-- one2 -->
<!-- eq2&#45;&gt;one2 -->
</g>
</svg>
