<?xml version="1.0" encoding="UTF-8" standalone="no"?>
<!DOCTYPE svg PUBLIC "-//W3C//DTD SVG 1.1//EN"
 "http://www.w3.org/Graphics/SVG/1.1/DTD/svg11.dtd">
<!-- Generated by graphviz version 2.43.0 (0)
 -->
<!-- Title: %3 Pages: 1 -->
<svg width="247pt" height="260pt"
 viewBox="0.00 0.00 246.50 260.00" xmlns="http://www.w3.org/2000/svg" xmlns:xlink="http://www.w3.org/1999/xlink">
<g id="graph0" class="graph" transform="scale(1 1) rotate(0) translate(4 256)">
<title>%3</title>
<!-- ExtRuleBool -->
<g id="node1" class="node operator">
<title>ExtRuleBool</title>
<path fill="#586e75" stroke="#586e75" d="M226.5,-252C226.5,-252 120.5,-252 120.5,-252 114.5,-252 108.5,-246 108.5,-240 108.5,-240 108.5,-228 108.5,-228 108.5,-222 114.5,-216 120.5,-216 120.5,-216 226.5,-216 226.5,-216 232.5,-216 238.5,-222 238.5,-228 238.5,-228 238.5,-240 238.5,-240 238.5,-246 232.5,-252 226.5,-252"/>
<text text-anchor="middle" x="173.5" y="-230.3" font-family="Inter,Arial" font-size="14.00" fill="#ffffff">ExtRule[Boolean]</text>
</g>
<!-- RuleBool -->
<g id="node2" class="node operator">
<title>RuleBool</title>
<path fill="#586e75" stroke="#586e75" d="M116,-180C116,-180 31,-180 31,-180 25,-180 19,-174 19,-168 19,-168 19,-156 19,-156 19,-150 25,-144 31,-144 31,-144 116,-144 116,-144 122,-144 128,-150 128,-156 128,-156 128,-168 128,-168 128,-174 122,-180 116,-180"/>
<text text-anchor="middle" x="73.5" y="-158.3" font-family="Inter,Arial" font-size="14.00" fill="#ffffff">Rule[Boolean]</text>
</g>
<!-- ExtRuleBool&#45;&gt;RuleBool -->
<g id="edge1" class="edge relies">
<title>ExtRuleBool&#45;&gt;RuleBool</title>
<path fill="none" stroke="#586e75" stroke-dasharray="5,2" d="M149.04,-215.88C136.2,-206.89 120.3,-195.76 106.41,-186.03"/>
<polygon fill="#586e75" stroke="#586e75" points="98.06,-180.19 108.83,-182.24 102.15,-183.06 106.25,-185.92 106.25,-185.92 106.25,-185.92 102.15,-183.06 103.67,-189.61 98.06,-180.19 98.06,-180.19"/>
</g>
<!-- Bool -->
<g id="node6" class="node">
<title>Bool</title>
<path fill="#ffffff" stroke="#586e75" d="M188.5,-180C188.5,-180 158.5,-180 158.5,-180 152.5,-180 146.5,-174 146.5,-168 146.5,-168 146.5,-156 146.5,-156 146.5,-150 152.5,-144 158.5,-144 158.5,-144 188.5,-144 188.5,-144 194.5,-144 200.5,-150 200.5,-156 200.5,-156 200.5,-168 200.5,-168 200.5,-174 194.5,-180 188.5,-180"/>
<text text-anchor="middle" x="173.5" y="-158.3" font-family="Inter,Arial" font-size="14.00" fill="#586e75">Bool</text>
</g>
<!-- ExtRuleBool&#45;&gt;Bool -->
<g id="edge2" class="edge">
<title>ExtRuleBool&#45;&gt;Bool</title>
<path fill="none" stroke="#586e75" d="M173.5,-215.7C173.5,-207.98 173.5,-198.71 173.5,-190.11"/>
<polygon fill="#586e75" stroke="#586e75" points="177,-190.1 173.5,-180.1 170,-190.1 177,-190.1"/>
</g>
<!-- And -->
<g id="node4" class="node">
<title>And</title>
<path fill="#ffffff" stroke="#586e75" d="M126.5,-108C126.5,-108 96.5,-108 96.5,-108 90.5,-108 84.5,-102 84.5,-96 84.5,-96 84.5,-84 84.5,-84 84.5,-78 90.5,-72 96.5,-72 96.5,-72 126.5,-72 126.5,-72 132.5,-72 138.5,-78 138.5,-84 138.5,-84 138.5,-96 138.5,-96 138.5,-102 132.5,-108 126.5,-108"/>
<text text-anchor="middle" x="111.5" y="-86.3" font-family="Inter,Arial" font-size="14.00" fill="#586e75">And</text>
</g>
<!-- RuleBool&#45;&gt;And -->
<g id="edge4" class="edge">
<title>RuleBool&#45;&gt;And</title>
<path fill="none" stroke="#586e75" d="M76.98,-143.7C80.56,-135.56 85.71,-125.69 91.01,-116.7"/>
<polygon fill="#586e75" stroke="#586e75" points="94.05,-118.45 96.32,-108.1 88.09,-114.78 94.05,-118.45"/>
</g>
<!-- Equals -->
<g id="node5" class="node">
<title>Equals</title>
<path fill="#ffffff" stroke="#586e75" d="M54.5,-108C54.5,-108 18.5,-108 18.5,-108 12.5,-108 6.5,-102 6.5,-96 6.5,-96 6.5,-84 6.5,-84 6.5,-78 12.5,-72 18.5,-72 18.5,-72 54.5,-72 54.5,-72 60.5,-72 66.5,-78 66.5,-84 66.5,-84 66.5,-96 66.5,-96 66.5,-102 60.5,-108 54.5,-108"/>
<text text-anchor="middle" x="36.5" y="-86.3" font-family="Inter,Arial" font-size="14.00" fill="#586e75">Equals</text>
</g>
<!-- RuleBool&#45;&gt;Equals -->
<g id="edge5" class="edge">
<title>RuleBool&#45;&gt;Equals</title>
<path fill="none" stroke="#586e75" d="M64.35,-143.7C60.1,-135.64 54.94,-125.89 50.23,-116.98"/>
<polygon fill="#586e75" stroke="#586e75" points="53.31,-115.31 45.54,-108.1 47.12,-118.58 53.31,-115.31"/>
</g>
<!-- RuleInt -->
<g id="node3" class="node operator">
<title>RuleInt</title>
<path fill="#586e75" stroke="#586e75" d="M61,-36C61,-36 12,-36 12,-36 6,-36 0,-30 0,-24 0,-24 0,-12 0,-12 0,-6 6,0 12,0 12,0 61,0 61,0 67,0 73,-6 73,-12 73,-12 73,-24 73,-24 73,-30 67,-36 61,-36"/>
<text text-anchor="middle" x="36.5" y="-14.3" font-family="Inter,Arial" font-size="14.00" fill="#ffffff">Rule[Int]</text>
</g>
<!-- And&#45;&gt;ExtRuleBool -->
<!-- And&#45;&gt;RuleBool -->
<!-- Equals&#45;&gt;RuleInt -->
<g id="edge3" class="edge relies">
<title>Equals&#45;&gt;RuleInt</title>
<path fill="none" stroke="#586e75" stroke-dasharray="5,2" d="M36.5,-71.7C36.5,-63.98 36.5,-54.71 36.5,-46.11"/>
<polygon fill="#586e75" stroke="#586e75" points="36.5,-36.1 41,-46.1 36.5,-41.1 36.5,-46.1 36.5,-46.1 36.5,-46.1 36.5,-41.1 32,-46.1 36.5,-36.1 36.5,-36.1"/>
</g>
</g>
</svg>
