<?xml version="1.0" encoding="UTF-8" standalone="no"?>
<!DOCTYPE svg PUBLIC "-//W3C//DTD SVG 1.1//EN"
 "http://www.w3.org/Graphics/SVG/1.1/DTD/svg11.dtd">
<!-- Generated by graphviz version 2.43.0 (0)
 -->
<!-- Title: %3 Pages: 1 -->
<svg width="320pt" height="204pt"
 viewBox="0.00 0.00 319.50 204.00" xmlns="http://www.w3.org/2000/svg" xmlns:xlink="http://www.w3.org/1999/xlink">
<g id="graph0" class="graph" transform="scale(1 1) rotate(0) translate(4 200)">
<title>%3</title>
<g id="clust1" class="cluster">
<title>cluster_foo</title>
<polygon fill="transparent" stroke="transparent" points="83.5,-8 83.5,-60 303.5,-60 303.5,-8 83.5,-8"/>
</g>
<!-- ExtRuleBool -->
<g id="node1" class="node operator">
<title>ExtRuleBool</title>
<path fill="#586e75" stroke="#586e75" d="M247.5,-196C247.5,-196 141.5,-196 141.5,-196 135.5,-196 129.5,-190 129.5,-184 129.5,-184 129.5,-172 129.5,-172 129.5,-166 135.5,-160 141.5,-160 141.5,-160 247.5,-160 247.5,-160 253.5,-160 259.5,-166 259.5,-172 259.5,-172 259.5,-184 259.5,-184 259.5,-190 253.5,-196 247.5,-196"/>
<text text-anchor="middle" x="194.5" y="-174.3" font-family="Inter,Arial" font-size="14.00" fill="#ffffff">ExtRule[Boolean]</text>
</g>
<!-- RuleBool -->
<g id="node3" class="node operator">
<title>RuleBool</title>
<path fill="#586e75" stroke="#586e75" d="M187,-124C187,-124 102,-124 102,-124 96,-124 90,-118 90,-112 90,-112 90,-100 90,-100 90,-94 96,-88 102,-88 102,-88 187,-88 187,-88 193,-88 199,-94 199,-100 199,-100 199,-112 199,-112 199,-118 193,-124 187,-124"/>
<text text-anchor="middle" x="144.5" y="-102.3" font-family="Inter,Arial" font-size="14.00" fill="#ffffff">Rule[Boolean]</text>
</g>
<!-- ExtRuleBool&#45;&gt;RuleBool -->
<g id="edge1" class="edge relies">
<title>ExtRuleBool&#45;&gt;RuleBool</title>
<path fill="none" stroke="#586e75" stroke-dasharray="5,2" d="M182.14,-159.7C176.27,-151.47 169.13,-141.48 162.66,-132.42"/>
<polygon fill="#586e75" stroke="#586e75" points="156.72,-124.1 166.19,-129.63 159.62,-128.17 162.53,-132.24 162.53,-132.24 162.53,-132.24 159.62,-128.17 158.87,-134.86 156.72,-124.1 156.72,-124.1"/>
</g>
<!-- Bool -->
<g id="node6" class="node">
<title>Bool</title>
<path fill="#ffffff" stroke="#586e75" d="M283.5,-52C283.5,-52 253.5,-52 253.5,-52 247.5,-52 241.5,-46 241.5,-40 241.5,-40 241.5,-28 241.5,-28 241.5,-22 247.5,-16 253.5,-16 253.5,-16 283.5,-16 283.5,-16 289.5,-16 295.5,-22 295.5,-28 295.5,-28 295.5,-40 295.5,-40 295.5,-46 289.5,-52 283.5,-52"/>
<text text-anchor="middle" x="268.5" y="-30.3" font-family="Inter,Arial" font-size="14.00" fill="#586e75">Bool</text>
</g>
<!-- ExtRuleBool&#45;&gt;Bool -->
<g id="edge2" class="edge">
<title>ExtRuleBool&#45;&gt;Bool</title>
<path fill="none" stroke="#586e75" d="M203.87,-159.76C216.66,-134.88 239.68,-90.08 254.51,-61.22"/>
<polygon fill="#586e75" stroke="#586e75" points="257.75,-62.58 259.2,-52.09 251.52,-59.38 257.75,-62.58"/>
</g>
<!-- RuleInt -->
<!-- RuleBool&#45;&gt;RuleInt -->
<!-- RuleBool&#45;&gt;RuleBool -->
<!-- And -->
<!-- RuleBool&#45;&gt;And -->
<!-- Equals -->
<g id="node5" class="node">
<title>Equals</title>
<path fill="#ffffff" stroke="#586e75" d="M139.5,-52C139.5,-52 103.5,-52 103.5,-52 97.5,-52 91.5,-46 91.5,-40 91.5,-40 91.5,-28 91.5,-28 91.5,-22 97.5,-16 103.5,-16 103.5,-16 139.5,-16 139.5,-16 145.5,-16 151.5,-22 151.5,-28 151.5,-28 151.5,-40 151.5,-40 151.5,-46 145.5,-52 139.5,-52"/>
<text text-anchor="middle" x="121.5" y="-30.3" font-family="Inter,Arial" font-size="14.00" fill="#586e75">Equals</text>
</g>
<!-- RuleBool&#45;&gt;Equals -->
<g id="edge6" class="edge">
<title>RuleBool&#45;&gt;Equals</title>
<path fill="none" stroke="#586e75" d="M138.81,-87.7C136.25,-79.9 133.17,-70.51 130.32,-61.83"/>
<polygon fill="#586e75" stroke="#586e75" points="133.57,-60.51 127.12,-52.1 126.92,-62.7 133.57,-60.51"/>
</g>
</g>
</svg>
