<?xml version="1.0" encoding="UTF-8" standalone="no"?>
<!DOCTYPE svg PUBLIC "-//W3C//DTD SVG 1.1//EN"
 "http://www.w3.org/Graphics/SVG/1.1/DTD/svg11.dtd">
<!-- Generated by graphviz version 2.43.0 (0)
 -->
<!-- Title: %3 Pages: 1 -->
<svg width="244pt" height="260pt"
 viewBox="0.00 0.00 244.00 260.00" xmlns="http://www.w3.org/2000/svg" xmlns:xlink="http://www.w3.org/1999/xlink">
<g id="graph0" class="graph" transform="scale(1 1) rotate(0) translate(4 256)">
<title>%3</title>
<g id="clust1" class="cluster">
<title>cluster_foo</title>
<polygon fill="transparent" stroke="transparent" points="8,-64 8,-116 228,-116 228,-64 8,-64"/>
</g>
<!-- BoolRuleBool -->
<g id="node1" class="node operator,disabled">
<title>BoolRuleBool</title>
<path fill="#d0dce3" stroke="#d0dce3" d="M212.5,-252C212.5,-252 99.5,-252 99.5,-252 93.5,-252 87.5,-246 87.5,-240 87.5,-240 87.5,-228 87.5,-228 87.5,-222 93.5,-216 99.5,-216 99.5,-216 212.5,-216 212.5,-216 218.5,-216 224.5,-222 224.5,-228 224.5,-228 224.5,-240 224.5,-240 224.5,-246 218.5,-252 212.5,-252"/>
<text text-anchor="middle" x="156" y="-230.3" font-family="Inter,Arial" font-size="14.00" fill="#ffffff">BoolRule[Boolean]</text>
</g>
<!-- RuleBool -->
<g id="node3" class="node operator">
<title>RuleBool</title>
<path fill="#586e75" stroke="#586e75" d="M157.5,-180C157.5,-180 72.5,-180 72.5,-180 66.5,-180 60.5,-174 60.5,-168 60.5,-168 60.5,-156 60.5,-156 60.5,-150 66.5,-144 72.5,-144 72.5,-144 157.5,-144 157.5,-144 163.5,-144 169.5,-150 169.5,-156 169.5,-156 169.5,-168 169.5,-168 169.5,-174 163.5,-180 157.5,-180"/>
<text text-anchor="middle" x="115" y="-158.3" font-family="Inter,Arial" font-size="14.00" fill="#ffffff">Rule[Boolean]</text>
</g>
<!-- BoolRuleBool&#45;&gt;RuleBool -->
<g id="edge1" class="edge relies,disabled">
<title>BoolRuleBool&#45;&gt;RuleBool</title>
<path fill="none" stroke="#d0dce3" stroke-dasharray="5,2" d="M145.87,-215.7C141.15,-207.64 135.44,-197.89 130.22,-188.98"/>
<polygon fill="#d0dce3" stroke="#d0dce3" points="125.02,-180.1 133.96,-186.46 127.55,-184.42 130.07,-188.73 130.07,-188.73 130.07,-188.73 127.55,-184.42 126.19,-191.01 125.02,-180.1 125.02,-180.1"/>
</g>
<!-- Bool -->
<g id="node6" class="node disabled">
<title>Bool</title>
<path fill="#ffffff" stroke="#d0dce3" d="M208,-108C208,-108 178,-108 178,-108 172,-108 166,-102 166,-96 166,-96 166,-84 166,-84 166,-78 172,-72 178,-72 178,-72 208,-72 208,-72 214,-72 220,-78 220,-84 220,-84 220,-96 220,-96 220,-102 214,-108 208,-108"/>
<text text-anchor="middle" x="193" y="-86.3" font-family="Inter,Arial" font-size="14.00" fill="#d0dce3">Bool</text>
</g>
<!-- BoolRuleBool&#45;&gt;Bool -->
<g id="edge2" class="edge disabled">
<title>BoolRuleBool&#45;&gt;Bool</title>
<path fill="none" stroke="#d0dce3" d="M160.69,-215.76C167.02,-191.09 178.39,-146.86 185.81,-117.97"/>
<polygon fill="#d0dce3" stroke="#d0dce3" points="189.25,-118.65 188.35,-108.09 182.47,-116.9 189.25,-118.65"/>
</g>
<!-- RuleInt -->
<g id="node2" class="node operator,disabled">
<title>RuleInt</title>
<path fill="#d0dce3" stroke="#d0dce3" d="M70.5,-36C70.5,-36 21.5,-36 21.5,-36 15.5,-36 9.5,-30 9.5,-24 9.5,-24 9.5,-12 9.5,-12 9.5,-6 15.5,0 21.5,0 21.5,0 70.5,0 70.5,0 76.5,0 82.5,-6 82.5,-12 82.5,-12 82.5,-24 82.5,-24 82.5,-30 76.5,-36 70.5,-36"/>
<text text-anchor="middle" x="46" y="-14.3" font-family="Inter,Arial" font-size="14.00" fill="#ffffff">Rule[Int]</text>
</g>
<!-- And -->
<g id="node4" class="node disabled">
<title>And</title>
<path fill="#ffffff" stroke="#d0dce3" d="M136,-108C136,-108 106,-108 106,-108 100,-108 94,-102 94,-96 94,-96 94,-84 94,-84 94,-78 100,-72 106,-72 106,-72 136,-72 136,-72 142,-72 148,-78 148,-84 148,-84 148,-96 148,-96 148,-102 142,-108 136,-108"/>
<text text-anchor="middle" x="121" y="-86.3" font-family="Inter,Arial" font-size="14.00" fill="#d0dce3">And</text>
</g>
<!-- RuleBool&#45;&gt;And -->
<g id="edge4" class="edge disabled">
<title>RuleBool&#45;&gt;And</title>
<path fill="none" stroke="#d0dce3" d="M122.4,-143.7C123.86,-135.98 124.88,-126.71 125.27,-118.11"/>
<polygon fill="#d0dce3" stroke="#d0dce3" points="128.77,-118.16 125.43,-108.1 121.77,-118.05 128.77,-118.16"/>
</g>
<!-- Equals -->
<g id="node5" class="node disabled">
<title>Equals</title>
<path fill="#ffffff" stroke="#d0dce3" d="M64,-108C64,-108 28,-108 28,-108 22,-108 16,-102 16,-96 16,-96 16,-84 16,-84 16,-78 22,-72 28,-72 28,-72 64,-72 64,-72 70,-72 76,-78 76,-84 76,-84 76,-96 76,-96 76,-102 70,-108 64,-108"/>
<text text-anchor="middle" x="46" y="-86.3" font-family="Inter,Arial" font-size="14.00" fill="#d0dce3">Equals</text>
</g>
<!-- RuleBool&#45;&gt;Equals -->
<g id="edge5" class="edge disabled">
<title>RuleBool&#45;&gt;Equals</title>
<path fill="none" stroke="#d0dce3" d="M97.94,-143.7C89.5,-135.14 79.18,-124.66 69.96,-115.3"/>
<polygon fill="#d0dce3" stroke="#d0dce3" points="72.37,-112.77 62.86,-108.1 67.39,-117.68 72.37,-112.77"/>
</g>
<!-- And&#45;&gt;RuleBool -->
<g id="edge6" class="edge relies,disabled">
<title>And&#45;&gt;RuleBool</title>
<path fill="none" stroke="#d0dce3" stroke-dasharray="5,2" d="M113.64,-108.1C112.17,-115.79 111.14,-125.05 110.74,-133.67"/>
<polygon fill="#d0dce3" stroke="#d0dce3" points="110.57,-143.7 106.24,-133.62 110.65,-138.7 110.74,-133.7 110.74,-133.7 110.74,-133.7 110.65,-138.7 115.24,-133.78 110.57,-143.7 110.57,-143.7"/>
</g>
<!-- Equals&#45;&gt;RuleInt -->
<g id="edge3" class="edge relies,disabled">
<title>Equals&#45;&gt;RuleInt</title>
<path fill="none" stroke="#d0dce3" stroke-dasharray="5,2" d="M46,-71.7C46,-63.98 46,-54.71 46,-46.11"/>
<polygon fill="#d0dce3" stroke="#d0dce3" points="46,-36.1 50.5,-46.1 46,-41.1 46,-46.1 46,-46.1 46,-46.1 46,-41.1 41.5,-46.1 46,-36.1 46,-36.1"/>
</g>
</g>
</svg>
