<?xml version="1.0" encoding="UTF-8" standalone="no"?>
<!DOCTYPE svg PUBLIC "-//W3C//DTD SVG 1.1//EN"
 "http://www.w3.org/Graphics/SVG/1.1/DTD/svg11.dtd">
<!-- Generated by graphviz version 2.43.0 (0)
 -->
<!-- Title: %3 Pages: 1 -->
<svg width="250pt" height="260pt"
 viewBox="0.00 0.00 250.00 260.00" xmlns="http://www.w3.org/2000/svg" xmlns:xlink="http://www.w3.org/1999/xlink">
<g id="graph0" class="graph" transform="scale(1 1) rotate(0) translate(4 256)">
<title>%3</title>
<!-- BoolRuleBool -->
<g id="node1" class="node operator">
<title>BoolRuleBool</title>
<path fill="#586e75" stroke="#586e75" d="M230,-252C230,-252 117,-252 117,-252 111,-252 105,-246 105,-240 105,-240 105,-228 105,-228 105,-222 111,-216 117,-216 117,-216 230,-216 230,-216 236,-216 242,-222 242,-228 242,-228 242,-240 242,-240 242,-246 236,-252 230,-252"/>
<text text-anchor="middle" x="173.5" y="-230.3" font-family="Inter,Arial" font-size="14.00" fill="#ffffff">BoolRule[Boolean]</text>
</g>
<!-- RuleBool -->
<g id="node2" class="node operator">
<title>RuleBool</title>
<path fill="#586e75" stroke="#586e75" d="M116,-180C116,-180 31,-180 31,-180 25,-180 19,-174 19,-168 19,-168 19,-156 19,-156 19,-150 25,-144 31,-144 31,-144 116,-144 116,-144 122,-144 128,-150 128,-156 128,-156 128,-168 128,-168 128,-174 122,-180 116,-180"/>
<text text-anchor="middle" x="73.5" y="-158.3" font-family="Inter,Arial" font-size="14.00" fill="#ffffff">Rule[Boolean]</text>
</g>
<!-- BoolRuleBool&#45;&gt;RuleBool -->
<g id="edge1" class="edge relies">
<title>BoolRuleBool&#45;&gt;RuleBool</title>
<path fill="none" stroke="#586e75" stroke-dasharray="5,2" d="M149.04,-215.88C136.2,-206.89 120.3,-195.76 106.41,-186.03"/>
<polygon fill="#586e75" stroke="#586e75" points="98.06,-180.19 108.83,-182.24 102.15,-183.06 106.25,-185.92 106.25,-185.92 106.25,-185.92 102.15,-183.06 103.67,-189.61 98.06,-180.19 98.06,-180.19"/>
</g>
<!-- Bool -->
<g id="node6" class="node">
<title>Bool</title>
<path fill="#ffffff" stroke="#586e75" d="M188.5,-180C188.5,-180 158.5,-180 158.5,-180 152.5,-180 146.5,-174 146.5,-168 146.5,-168 146.5,-156 146.5,-156 146.5,-150 152.5,-144 158.5,-144 158.5,-144 188.5,-144 188.5,-144 194.5,-144 200.5,-150 200.5,-156 200.5,-156 200.5,-168 200.5,-168 200.5,-174 194.5,-180 188.5,-180"/>
<text text-anchor="middle" x="173.5" y="-158.3" font-family="Inter,Arial" font-size="14.00" fill="#586e75">Bool</text>
</g>
<!-- BoolRuleBool&#45;&gt;Bool -->
<g id="edge2" class="edge">
<title>BoolRuleBool&#45;&gt;Bool</title>
<path fill="none" stroke="#586e75" d="M173.5,-215.7C173.5,-207.98 173.5,-198.71 173.5,-190.11"/>
<polygon fill="#586e75" stroke="#586e75" points="177,-190.1 173.5,-180.1 170,-190.1 177,-190.1"/>
</g>
<!-- And -->
<!-- RuleBool&#45;&gt;And -->
<!-- Equals -->
<!-- RuleBool&#45;&gt;Equals -->
<!-- RuleInt -->
<!-- And&#45;&gt;BoolRuleBool -->
<!-- And&#45;&gt;RuleBool -->
<!-- Equals&#45;&gt;RuleInt -->
</g>
</svg>
