<?xml version="1.0" encoding="UTF-8" standalone="no"?>
<!DOCTYPE svg PUBLIC "-//W3C//DTD SVG 1.1//EN"
 "http://www.w3.org/Graphics/SVG/1.1/DTD/svg11.dtd">
<!-- Generated by graphviz version 2.43.0 (0)
 -->
<!-- Title: %3 Pages: 1 -->
<svg width="320pt" height="204pt"
 viewBox="0.00 0.00 319.50 204.00" xmlns="http://www.w3.org/2000/svg" xmlns:xlink="http://www.w3.org/1999/xlink">
<g id="graph0" class="graph" transform="scale(1 1) rotate(0) translate(4 200)">
<title>%3</title>
<g id="clust1" class="cluster">
<title>cluster_foo</title>
<polygon fill="transparent" stroke="transparent" points="83.5,-8 83.5,-60 303.5,-60 303.5,-8 83.5,-8"/>
</g>
<!-- ExtRuleBool -->
<g id="node1" class="node operator">
<title>ExtRuleBool</title>
<path fill="#586e75" stroke="#586e75" d="M247.5,-196C247.5,-196 141.5,-196 141.5,-196 135.5,-196 129.5,-190 129.5,-184 129.5,-184 129.5,-172 129.5,-172 129.5,-166 135.5,-160 141.5,-160 141.5,-160 247.5,-160 247.5,-160 253.5,-160 259.5,-166 259.5,-172 259.5,-172 259.5,-184 259.5,-184 259.5,-190 253.5,-196 247.5,-196"/>
<text text-anchor="middle" x="194.5" y="-174.3" font-family="Inter,Arial" font-size="14.00" fill="#ffffff">ExtRule[Boolean]</text>
</g>
<!-- RuleBool -->
<g id="node3" class="node operator">
<title>RuleBool</title>
<path fill="#586e75" stroke="#586e75" d="M173.5,-124C173.5,-124 143.5,-124 143.5,-124 137.5,-124 131.5,-118 131.5,-112 131.5,-112 131.5,-100 131.5,-100 131.5,-94 137.5,-88 143.5,-88 143.5,-88 173.5,-88 173.5,-88 179.5,-88 185.5,-94 185.5,-100 185.5,-100 185.5,-112 185.5,-112 185.5,-118 179.5,-124 173.5,-124"/>
<text text-anchor="middle" x="158.5" y="-102.3" font-family="Inter,Arial" font-size="14.00" fill="#ffffff">???</text>
</g>
<!-- ExtRuleBool&#45;&gt;RuleBool -->
<g id="edge1" class="edge corelies">
<title>ExtRuleBool&#45;&gt;RuleBool</title>
<path fill="none" stroke="#586e75" stroke-dasharray="5,2" d="M181.02,-150.8C178.08,-145.08 174.97,-139.03 172.03,-133.3"/>
<polygon fill="#586e75" stroke="#586e75" points="185.6,-159.7 177.03,-152.86 183.31,-155.25 181.03,-150.8 181.03,-150.8 181.03,-150.8 183.31,-155.25 185.03,-148.75 185.6,-159.7 185.6,-159.7"/>
<polygon fill="#586e75" stroke="#586e75" points="167.3,-124.1 175.87,-130.94 169.58,-128.55 171.87,-133 171.87,-133 171.87,-133 169.58,-128.55 167.87,-135.06 167.3,-124.1 167.3,-124.1"/>
</g>
<!-- Bool -->
<g id="node6" class="node">
<title>Bool</title>
<path fill="#ffffff" stroke="#586e75" d="M283.5,-52C283.5,-52 253.5,-52 253.5,-52 247.5,-52 241.5,-46 241.5,-40 241.5,-40 241.5,-28 241.5,-28 241.5,-22 247.5,-16 253.5,-16 253.5,-16 283.5,-16 283.5,-16 289.5,-16 295.5,-22 295.5,-28 295.5,-28 295.5,-40 295.5,-40 295.5,-46 289.5,-52 283.5,-52"/>
<text text-anchor="middle" x="268.5" y="-30.3" font-family="Inter,Arial" font-size="14.00" fill="#586e75">Bool</text>
</g>
<!-- ExtRuleBool&#45;&gt;Bool -->
<g id="edge2" class="edge">
<title>ExtRuleBool&#45;&gt;Bool</title>
<path fill="none" stroke="#586e75" d="M203.87,-159.76C216.66,-134.88 239.68,-90.08 254.51,-61.22"/>
<polygon fill="#586e75" stroke="#586e75" points="257.75,-62.58 259.2,-52.09 251.52,-59.38 257.75,-62.58"/>
</g>
<!-- RuleInt -->
<g id="node2" class="node operator">
<title>RuleInt</title>
<path fill="#586e75" stroke="#586e75" d="M61,-52C61,-52 12,-52 12,-52 6,-52 0,-46 0,-40 0,-40 0,-28 0,-28 0,-22 6,-16 12,-16 12,-16 61,-16 61,-16 67,-16 73,-22 73,-28 73,-28 73,-40 73,-40 73,-46 67,-52 61,-52"/>
<text text-anchor="middle" x="36.5" y="-30.3" font-family="Inter,Arial" font-size="14.00" fill="#ffffff">Rule[Int]</text>
</g>
<!-- RuleBool&#45;&gt;RuleInt -->
<g id="edge4" class="edge relies">
<title>RuleBool&#45;&gt;RuleInt</title>
<path fill="none" stroke="#586e75" stroke-dasharray="5,2" d="M131.42,-89.46C114.89,-79.98 93.49,-67.7 75.19,-57.2"/>
<polygon fill="#586e75" stroke="#586e75" points="66.5,-52.21 77.41,-53.28 70.83,-54.7 75.17,-57.19 75.17,-57.19 75.17,-57.19 70.83,-54.7 72.93,-61.09 66.5,-52.21 66.5,-52.21"/>
</g>
<!-- RuleBool&#45;&gt;RuleBool -->
<!-- And -->
<g id="node4" class="node">
<title>And</title>
<path fill="#ffffff" stroke="#586e75" d="M211.5,-52C211.5,-52 181.5,-52 181.5,-52 175.5,-52 169.5,-46 169.5,-40 169.5,-40 169.5,-28 169.5,-28 169.5,-22 175.5,-16 181.5,-16 181.5,-16 211.5,-16 211.5,-16 217.5,-16 223.5,-22 223.5,-28 223.5,-28 223.5,-40 223.5,-40 223.5,-46 217.5,-52 211.5,-52"/>
<text text-anchor="middle" x="196.5" y="-30.3" font-family="Inter,Arial" font-size="14.00" fill="#586e75">And</text>
</g>
<!-- RuleBool&#45;&gt;And -->
<g id="edge5" class="edge">
<title>RuleBool&#45;&gt;And</title>
<path fill="none" stroke="#586e75" d="M167.89,-87.7C172.26,-79.64 177.56,-69.89 182.4,-60.98"/>
<polygon fill="#586e75" stroke="#586e75" points="185.52,-62.56 187.21,-52.1 179.37,-59.22 185.52,-62.56"/>
</g>
<!-- Equals -->
<g id="node5" class="node">
<title>Equals</title>
<path fill="#ffffff" stroke="#586e75" d="M139.5,-52C139.5,-52 103.5,-52 103.5,-52 97.5,-52 91.5,-46 91.5,-40 91.5,-40 91.5,-28 91.5,-28 91.5,-22 97.5,-16 103.5,-16 103.5,-16 139.5,-16 139.5,-16 145.5,-16 151.5,-22 151.5,-28 151.5,-28 151.5,-40 151.5,-40 151.5,-46 145.5,-52 139.5,-52"/>
<text text-anchor="middle" x="121.5" y="-30.3" font-family="Inter,Arial" font-size="14.00" fill="#586e75">Equals</text>
</g>
<!-- RuleBool&#45;&gt;Equals -->
<g id="edge6" class="edge">
<title>RuleBool&#45;&gt;Equals</title>
<path fill="none" stroke="#586e75" d="M149.35,-87.7C145.1,-79.64 139.94,-69.89 135.23,-60.98"/>
<polygon fill="#586e75" stroke="#586e75" points="138.31,-59.31 130.54,-52.1 132.12,-62.58 138.31,-59.31"/>
</g>
</g>
</svg>
