<?xml version="1.0" encoding="UTF-8" standalone="no"?>
<!DOCTYPE svg PUBLIC "-//W3C//DTD SVG 1.1//EN"
 "http://www.w3.org/Graphics/SVG/1.1/DTD/svg11.dtd">
<!-- Generated by graphviz version 2.43.0 (0)
 -->
<!-- Title: %3 Pages: 1 -->
<svg width="513pt" height="124pt"
 viewBox="0.00 0.00 513.00 124.18" xmlns="http://www.w3.org/2000/svg" xmlns:xlink="http://www.w3.org/1999/xlink">
<g id="graph0" class="graph" transform="scale(1 1) rotate(0) translate(4 120.18)">
<title>%3</title>
<!-- rule -->
<g id="node1" class="node">
<title>rule</title>
<path fill="#ffffff" stroke="#586e75" d="M164,-77.68C164,-77.68 12,-77.68 12,-77.68 6,-77.68 0,-71.68 0,-65.68 0,-65.68 0,-36.68 0,-36.68 0,-30.68 6,-24.68 12,-24.68 12,-24.68 164,-24.68 164,-24.68 170,-24.68 176,-30.68 176,-36.68 176,-36.68 176,-65.68 176,-65.68 176,-71.68 170,-77.68 164,-77.68"/>
<text text-anchor="middle" x="88" y="-62.48" font-family="Inter,Arial" font-size="14.00" fill="#586e75">$categoryId EQUALS 10</text>
<text text-anchor="middle" x="88" y="-47.48" font-family="Inter,Arial" font-size="14.00" fill="#586e75">AND</text>
<text text-anchor="middle" x="88" y="-32.48" font-family="Inter,Arial" font-size="14.00" fill="#586e75">$price EQUALS 3</text>
</g>
<!-- json -->
<!-- rule&#45;&gt;json -->
<g id="edge1" class="edge">
<title>rule:ne&#45;&gt;json:nw</title>
<path fill="none" stroke="#586e75" d="M175,-77.18C201.87,-104.05 232.76,-114.71 260.32,-93.9"/>
<polygon fill="#586e75" stroke="#586e75" points="262.78,-96.4 268,-87.18 258.17,-91.13 262.78,-96.4"/>
<text text-anchor="middle" x="222" y="-107.38" font-family="Inter,Arial" font-size="11.00" fill="#586e75">serialise</text>
</g>
<!-- json&#45;&gt;rule -->
</g>
</svg>
