<?xml version="1.0" encoding="UTF-8" standalone="no"?>
<!DOCTYPE svg PUBLIC "-//W3C//DTD SVG 1.1//EN"
 "http://www.w3.org/Graphics/SVG/1.1/DTD/svg11.dtd">
<!-- Generated by graphviz version 2.43.0 (0)
 -->
<!-- Title: %3 Pages: 1 -->
<svg width="656pt" height="104pt"
 viewBox="0.00 0.00 656.00 104.00" xmlns="http://www.w3.org/2000/svg" xmlns:xlink="http://www.w3.org/1999/xlink">
<g id="graph0" class="graph" transform="scale(1 1) rotate(0) translate(4 100)">
<title>%3</title>
<!-- input -->
<g id="node1" class="node disabled">
<title>input</title>
<path fill="#ffffff" stroke="#d0dce3" d="M80,-67C80,-67 12,-67 12,-67 6,-67 0,-61 0,-55 0,-55 0,-43 0,-43 0,-37 6,-31 12,-31 12,-31 80,-31 80,-31 86,-31 92,-37 92,-43 92,-43 92,-55 92,-55 92,-61 86,-67 80,-67"/>
<text text-anchor="middle" x="46" y="-45.3" font-family="Inter,Arial" font-size="14.00" fill="#d0dce3">Submission</text>
</g>
<!-- doc -->
<g id="node2" class="node disabled">
<title>doc</title>
<path fill="#ffffff" stroke="#d0dce3" d="M233,-67C233,-67 173,-67 173,-67 167,-67 161,-61 161,-55 161,-55 161,-43 161,-43 161,-37 167,-31 173,-31 173,-31 233,-31 233,-31 239,-31 245,-37 245,-43 245,-43 245,-55 245,-55 245,-61 239,-67 233,-67"/>
<text text-anchor="middle" x="203" y="-45.3" font-family="Inter,Arial" font-size="14.00" fill="#d0dce3">Document</text>
</g>
<!-- input&#45;&gt;doc -->
<g id="edge2" class="edge disabled">
<title>input&#45;&gt;doc</title>
<path fill="none" stroke="#d0dce3" d="M92.25,-49C110.57,-49 131.82,-49 150.71,-49"/>
<polygon fill="#d0dce3" stroke="#d0dce3" points="150.93,-52.5 160.93,-49 150.93,-45.5 150.93,-52.5"/>
<text text-anchor="middle" x="126.5" y="-52.2" font-family="Inter,Arial" font-size="11.00" fill="#d0dce3">enrich</text>
</g>
<!-- orchestration -->
<g id="node6" class="node">
<title>orchestration</title>
<path fill="#ffffff" stroke="#586e75" d="M396,-67C396,-67 319,-67 319,-67 313,-67 307,-61 307,-55 307,-55 307,-43 307,-43 307,-37 313,-31 319,-31 319,-31 396,-31 396,-31 402,-31 408,-37 408,-43 408,-43 408,-55 408,-55 408,-61 402,-67 396,-67"/>
<text text-anchor="middle" x="357.5" y="-45.3" font-family="Inter,Arial" font-size="14.00" fill="#586e75">Orchestrator</text>
</g>
<!-- doc&#45;&gt;orchestration -->
<g id="edge1" class="edge">
<title>doc&#45;&gt;orchestration</title>
<path fill="none" stroke="#586e75" d="M245.27,-49C260.97,-49 279.21,-49 296.31,-49"/>
<polygon fill="#586e75" stroke="#586e75" points="296.78,-52.5 306.78,-49 296.78,-45.5 296.78,-52.5"/>
<text text-anchor="middle" x="276" y="-52.2" font-family="Inter,Arial" font-size="11.00" fill="#586e75">rules</text>
</g>
<!-- agent -->
<g id="node3" class="node">
<title>agent</title>
<path fill="#ffffff" stroke="#586e75" d="M536,-67C536,-67 504,-67 504,-67 498,-67 492,-61 492,-55 492,-55 492,-43 492,-43 492,-37 498,-31 504,-31 504,-31 536,-31 536,-31 542,-31 548,-37 548,-43 548,-43 548,-55 548,-55 548,-61 542,-67 536,-67"/>
<text text-anchor="middle" x="520" y="-45.3" font-family="Inter,Arial" font-size="14.00" fill="#586e75">Agent</text>
</g>
<!-- accept -->
<g id="node4" class="node">
<title>accept</title>
<path fill="#ffffff" stroke="#586e75" d="M636,-96C636,-96 597,-96 597,-96 591,-96 585,-90 585,-84 585,-84 585,-72 585,-72 585,-66 591,-60 597,-60 597,-60 636,-60 636,-60 642,-60 648,-66 648,-72 648,-72 648,-84 648,-84 648,-90 642,-96 636,-96"/>
<text text-anchor="middle" x="616.5" y="-74.3" font-family="Inter,Arial" font-size="14.00" fill="#586e75">Accept</text>
</g>
<!-- agent&#45;&gt;accept -->
<g id="edge6" class="edge choice,disabled">
<title>agent&#45;&gt;accept</title>
<path fill="none" stroke="#d0dce3" stroke-dasharray="5,2" d="M548.08,-57.31C556.49,-59.89 565.95,-62.79 575.07,-65.59"/>
<polygon fill="#d0dce3" stroke="#d0dce3" points="574.17,-68.98 584.76,-68.57 576.22,-62.29 574.17,-68.98"/>
</g>
<!-- reject -->
<g id="node5" class="node">
<title>reject</title>
<path fill="#ffffff" stroke="#586e75" d="M633.5,-36C633.5,-36 599.5,-36 599.5,-36 593.5,-36 587.5,-30 587.5,-24 587.5,-24 587.5,-12 587.5,-12 587.5,-6 593.5,0 599.5,0 599.5,0 633.5,0 633.5,0 639.5,0 645.5,-6 645.5,-12 645.5,-12 645.5,-24 645.5,-24 645.5,-30 639.5,-36 633.5,-36"/>
<text text-anchor="middle" x="616.5" y="-14.3" font-family="Inter,Arial" font-size="14.00" fill="#586e75">Reject</text>
</g>
<!-- agent&#45;&gt;reject -->
<g id="edge7" class="edge choice,disabled">
<title>agent&#45;&gt;reject</title>
<path fill="none" stroke="#d0dce3" stroke-dasharray="5,2" d="M548.08,-40.12C557.32,-37.08 567.84,-33.64 577.77,-30.38"/>
<polygon fill="#d0dce3" stroke="#d0dce3" points="579.02,-33.65 587.43,-27.21 576.84,-27 579.02,-33.65"/>
</g>
<!-- orchestration&#45;&gt;agent -->
<g id="edge5" class="edge">
<title>orchestration&#45;&gt;agent</title>
<path fill="none" stroke="#586e75" d="M408.4,-49C431.97,-49 459.63,-49 481.39,-49"/>
<polygon fill="#586e75" stroke="#586e75" points="481.56,-52.5 491.56,-49 481.56,-45.5 481.56,-52.5"/>
<text text-anchor="middle" x="450" y="-52.2" font-family="Inter,Arial" font-size="11.00" fill="#586e75">enqueue</text>
</g>
<!-- orchestration&#45;&gt;accept -->
<g id="edge3" class="edge choice">
<title>orchestration&#45;&gt;accept</title>
<path fill="none" stroke="#586e75" stroke-dasharray="5,2" d="M408.18,-61.18C414.17,-62.53 420.22,-63.83 426,-65 455.15,-70.88 462.38,-73.31 492,-76 519.53,-78.5 550.66,-78.99 574.77,-78.86"/>
<polygon fill="#586e75" stroke="#586e75" points="575.01,-82.36 584.98,-78.77 574.95,-75.36 575.01,-82.36"/>
</g>
<!-- orchestration&#45;&gt;reject -->
<g id="edge4" class="edge choice">
<title>orchestration&#45;&gt;reject</title>
<path fill="none" stroke="#586e75" stroke-dasharray="5,2" d="M408.26,-36.88C433.24,-31.32 464.05,-25.26 492,-22 520.4,-18.69 552.7,-17.74 577.15,-17.6"/>
<polygon fill="#586e75" stroke="#586e75" points="577.45,-21.1 587.44,-17.58 577.44,-14.1 577.45,-21.1"/>
</g>
</g>
</svg>
