<?xml version="1.0" encoding="UTF-8" standalone="no"?>
<!DOCTYPE svg PUBLIC "-//W3C//DTD SVG 1.1//EN"
 "http://www.w3.org/Graphics/SVG/1.1/DTD/svg11.dtd">
<!-- Generated by graphviz version 2.43.0 (0)
 -->
<!-- Title: %3 Pages: 1 -->
<svg width="340pt" height="98pt"
 viewBox="0.00 0.00 340.00 98.00" xmlns="http://www.w3.org/2000/svg" xmlns:xlink="http://www.w3.org/1999/xlink">
<g id="graph0" class="graph" transform="scale(1 1) rotate(0) translate(4 94)">
<title>%3</title>
<!-- input -->
<g id="node1" class="node">
<title>input</title>
<path fill="#ffffff" stroke="#586e75" d="M80,-63C80,-63 12,-63 12,-63 6,-63 0,-57 0,-51 0,-51 0,-39 0,-39 0,-33 6,-27 12,-27 12,-27 80,-27 80,-27 86,-27 92,-33 92,-39 92,-39 92,-51 92,-51 92,-57 86,-63 80,-63"/>
<text text-anchor="middle" x="46" y="-41.3" font-family="Inter,Arial" font-size="14.00" fill="#586e75">Submission</text>
</g>
<!-- agent -->
<g id="node2" class="node disabled">
<title>agent</title>
<path fill="#ffffff" stroke="#d0dce3" d="M220,-63C220,-63 188,-63 188,-63 182,-63 176,-57 176,-51 176,-51 176,-39 176,-39 176,-33 182,-27 188,-27 188,-27 220,-27 220,-27 226,-27 232,-33 232,-39 232,-39 232,-51 232,-51 232,-57 226,-63 220,-63"/>
<text text-anchor="middle" x="204" y="-41.3" font-family="Inter,Arial" font-size="14.00" fill="#d0dce3">Agent</text>
</g>
<!-- input&#45;&gt;agent -->
<g id="edge1" class="edge">
<title>input&#45;&gt;agent</title>
<path fill="none" stroke="#586e75" d="M92.12,-45C115.32,-45 143.27,-45 165.3,-45"/>
<polygon fill="#586e75" stroke="#586e75" points="165.6,-48.5 175.6,-45 165.6,-41.5 165.6,-48.5"/>
<text text-anchor="middle" x="134" y="-48.2" font-family="Inter,Arial" font-size="11.00" fill="#586e75">enqueue</text>
</g>
<!-- accept -->
<g id="node3" class="node disabled">
<title>accept</title>
<path fill="#ffffff" stroke="#d0dce3" d="M320,-90C320,-90 281,-90 281,-90 275,-90 269,-84 269,-78 269,-78 269,-66 269,-66 269,-60 275,-54 281,-54 281,-54 320,-54 320,-54 326,-54 332,-60 332,-66 332,-66 332,-78 332,-78 332,-84 326,-90 320,-90"/>
<text text-anchor="middle" x="300.5" y="-68.3" font-family="Inter,Arial" font-size="14.00" fill="#d0dce3">Accept</text>
</g>
<!-- agent&#45;&gt;accept -->
<g id="edge2" class="edge disabled">
<title>agent&#45;&gt;accept</title>
<path fill="none" stroke="#d0dce3" d="M232.08,-52.74C240.49,-55.14 249.95,-57.84 259.07,-60.45"/>
<polygon fill="#d0dce3" stroke="#d0dce3" points="258.18,-63.83 268.76,-63.22 260.1,-57.1 258.18,-63.83"/>
</g>
<!-- reject -->
<g id="node4" class="node disabled">
<title>reject</title>
<path fill="#ffffff" stroke="#d0dce3" d="M317.5,-36C317.5,-36 283.5,-36 283.5,-36 277.5,-36 271.5,-30 271.5,-24 271.5,-24 271.5,-12 271.5,-12 271.5,-6 277.5,0 283.5,0 283.5,0 317.5,0 317.5,0 323.5,0 329.5,-6 329.5,-12 329.5,-12 329.5,-24 329.5,-24 329.5,-30 323.5,-36 317.5,-36"/>
<text text-anchor="middle" x="300.5" y="-14.3" font-family="Inter,Arial" font-size="14.00" fill="#d0dce3">Reject</text>
</g>
<!-- agent&#45;&gt;reject -->
<g id="edge3" class="edge disabled">
<title>agent&#45;&gt;reject</title>
<path fill="none" stroke="#d0dce3" d="M232.08,-37.26C241.32,-34.62 251.84,-31.62 261.77,-28.78"/>
<polygon fill="#d0dce3" stroke="#d0dce3" points="262.78,-32.13 271.43,-26.02 260.85,-25.4 262.78,-32.13"/>
</g>
</g>
</svg>
