<?xml version="1.0" encoding="UTF-8" standalone="no"?>
<!DOCTYPE svg PUBLIC "-//W3C//DTD SVG 1.1//EN"
 "http://www.w3.org/Graphics/SVG/1.1/DTD/svg11.dtd">
<!-- Generated by graphviz version 2.43.0 (0)
 -->
<!-- Title: %3 Pages: 1 -->
<svg width="493pt" height="98pt"
 viewBox="0.00 0.00 493.00 98.00" xmlns="http://www.w3.org/2000/svg" xmlns:xlink="http://www.w3.org/1999/xlink">
<g id="graph0" class="graph" transform="scale(1 1) rotate(0) translate(4 94)">
<title>%3</title>
<!-- input -->
<g id="node1" class="node">
<title>input</title>
<path fill="#ffffff" stroke="#586e75" d="M80,-63C80,-63 12,-63 12,-63 6,-63 0,-57 0,-51 0,-51 0,-39 0,-39 0,-33 6,-27 12,-27 12,-27 80,-27 80,-27 86,-27 92,-33 92,-39 92,-39 92,-51 92,-51 92,-57 86,-63 80,-63"/>
<text text-anchor="middle" x="46" y="-41.3" font-family="Inter,Arial" font-size="14.00" fill="#586e75">Submission</text>
</g>
<!-- doc -->
<g id="node2" class="node">
<title>doc</title>
<path fill="#ffffff" stroke="#586e75" d="M233,-63C233,-63 173,-63 173,-63 167,-63 161,-57 161,-51 161,-51 161,-39 161,-39 161,-33 167,-27 173,-27 173,-27 233,-27 233,-27 239,-27 245,-33 245,-39 245,-39 245,-51 245,-51 245,-57 239,-63 233,-63"/>
<text text-anchor="middle" x="203" y="-41.3" font-family="Inter,Arial" font-size="14.00" fill="#586e75">Document</text>
</g>
<!-- input&#45;&gt;doc -->
<g id="edge1" class="edge">
<title>input&#45;&gt;doc</title>
<path fill="none" stroke="#586e75" d="M92.25,-45C110.57,-45 131.82,-45 150.71,-45"/>
<polygon fill="#586e75" stroke="#586e75" points="150.93,-48.5 160.93,-45 150.93,-41.5 150.93,-48.5"/>
<text text-anchor="middle" x="126.5" y="-48.2" font-family="Inter,Arial" font-size="11.00" fill="#586e75">enrich</text>
</g>
<!-- agent -->
<g id="node3" class="node">
<title>agent</title>
<path fill="#ffffff" stroke="#586e75" d="M373,-63C373,-63 341,-63 341,-63 335,-63 329,-57 329,-51 329,-51 329,-39 329,-39 329,-33 335,-27 341,-27 341,-27 373,-27 373,-27 379,-27 385,-33 385,-39 385,-39 385,-51 385,-51 385,-57 379,-63 373,-63"/>
<text text-anchor="middle" x="357" y="-41.3" font-family="Inter,Arial" font-size="14.00" fill="#586e75">Agent</text>
</g>
<!-- doc&#45;&gt;agent -->
<g id="edge2" class="edge">
<title>doc&#45;&gt;agent</title>
<path fill="none" stroke="#586e75" d="M245.13,-45C268.06,-45 296.38,-45 318.66,-45"/>
<polygon fill="#586e75" stroke="#586e75" points="318.75,-48.5 328.75,-45 318.75,-41.5 318.75,-48.5"/>
<text text-anchor="middle" x="287" y="-48.2" font-family="Inter,Arial" font-size="11.00" fill="#586e75">enqueue</text>
</g>
<!-- accept -->
<g id="node4" class="node">
<title>accept</title>
<path fill="#ffffff" stroke="#586e75" d="M473,-90C473,-90 434,-90 434,-90 428,-90 422,-84 422,-78 422,-78 422,-66 422,-66 422,-60 428,-54 434,-54 434,-54 473,-54 473,-54 479,-54 485,-60 485,-66 485,-66 485,-78 485,-78 485,-84 479,-90 473,-90"/>
<text text-anchor="middle" x="453.5" y="-68.3" font-family="Inter,Arial" font-size="14.00" fill="#586e75">Accept</text>
</g>
<!-- agent&#45;&gt;accept -->
<g id="edge3" class="edge choice">
<title>agent&#45;&gt;accept</title>
<path fill="none" stroke="#586e75" stroke-dasharray="5,2" d="M385.08,-52.74C393.49,-55.14 402.95,-57.84 412.07,-60.45"/>
<polygon fill="#586e75" stroke="#586e75" points="411.18,-63.83 421.76,-63.22 413.1,-57.1 411.18,-63.83"/>
</g>
<!-- reject -->
<!-- agent&#45;&gt;reject -->
</g>
</svg>
