<?xml version="1.0" encoding="UTF-8" standalone="no"?>
<!DOCTYPE svg PUBLIC "-//W3C//DTD SVG 1.1//EN"
 "http://www.w3.org/Graphics/SVG/1.1/DTD/svg11.dtd">
<!-- Generated by graphviz version 2.43.0 (0)
 -->
<!-- Title: %3 Pages: 1 -->
<svg width="399pt" height="152pt"
 viewBox="0.00 0.00 398.80 152.00" xmlns="http://www.w3.org/2000/svg" xmlns:xlink="http://www.w3.org/1999/xlink">
<g id="graph0" class="graph" transform="scale(1 1) rotate(0) translate(4 148)">
<title>%3</title>
<!-- F -->
<g id="node1" class="node disabled">
<title>F</title>
<path fill="#ffffff" stroke="#d0dce3" d="M61,-144C61,-144 31,-144 31,-144 25,-144 19,-138 19,-132 19,-132 19,-120 19,-120 19,-114 25,-108 31,-108 31,-108 61,-108 61,-108 67,-108 73,-114 73,-120 73,-120 73,-132 73,-132 73,-138 67,-144 61,-144"/>
<text text-anchor="middle" x="46" y="-122.3" font-family="Inter,Arial" font-size="14.00" fill="#d0dce3">F[_]</text>
</g>
<!-- Rule -->
<g id="node4" class="node choice,add">
<title>Rule</title>
<polygon fill="#acf2bd" stroke="#24a808" points="214.4,-90 128.1,-72 214.4,-54 300.7,-72 214.4,-90"/>
<text text-anchor="middle" x="214.4" y="-68.3" font-family="Inter,Arial" font-size="14.00" fill="#24a808">BoolRule[A]</text>
</g>
<!-- F&#45;&gt;Rule -->
<g id="edge1" class="edge disabled">
<title>F&#45;&gt;Rule</title>
<path fill="none" stroke="#d0dce3" d="M73,-117.56C98.98,-109.13 139.39,-96.02 170.19,-86.02"/>
<polygon fill="#d0dce3" stroke="#d0dce3" points="171.4,-89.31 179.83,-82.9 169.24,-82.65 171.4,-89.31"/>
</g>
<!-- BoolSym -->
<g id="node2" class="node disabled">
<title>BoolSym</title>
<path fill="#ffffff" stroke="#d0dce3" d="M80,-90C80,-90 12,-90 12,-90 6,-90 0,-84 0,-78 0,-78 0,-66 0,-66 0,-60 6,-54 12,-54 12,-54 80,-54 80,-54 86,-54 92,-60 92,-66 92,-66 92,-78 92,-78 92,-84 86,-90 80,-90"/>
<text text-anchor="middle" x="46" y="-68.3" font-family="Inter,Arial" font-size="14.00" fill="#d0dce3">BoolSym[F]</text>
</g>
<!-- BoolSym&#45;&gt;Rule -->
<g id="edge2" class="edge disabled">
<title>BoolSym&#45;&gt;Rule</title>
<path fill="none" stroke="#d0dce3" d="M92.03,-72C100.14,-72 108.87,-72 117.8,-72"/>
<polygon fill="#d0dce3" stroke="#d0dce3" points="117.93,-75.5 127.93,-72 117.93,-68.5 117.93,-75.5"/>
</g>
<!-- RuleSym -->
<g id="node3" class="node disabled">
<title>RuleSym</title>
<path fill="#ffffff" stroke="#d0dce3" d="M80,-36C80,-36 12,-36 12,-36 6,-36 0,-30 0,-24 0,-24 0,-12 0,-12 0,-6 6,0 12,0 12,0 80,0 80,0 86,0 92,-6 92,-12 92,-12 92,-24 92,-24 92,-30 86,-36 80,-36"/>
<text text-anchor="middle" x="46" y="-14.3" font-family="Inter,Arial" font-size="14.00" fill="#d0dce3">RuleSym[F]</text>
</g>
<!-- RuleSym&#45;&gt;Rule -->
<g id="edge3" class="edge disabled">
<title>RuleSym&#45;&gt;Rule</title>
<path fill="none" stroke="#d0dce3" d="M92.03,-32.61C116.39,-40.52 146.33,-50.24 170.38,-58.04"/>
<polygon fill="#d0dce3" stroke="#d0dce3" points="169.36,-61.39 179.95,-61.15 171.52,-54.73 169.36,-61.39"/>
</g>
<!-- FA -->
<g id="node5" class="node disabled">
<title>FA</title>
<path fill="#ffffff" stroke="#d0dce3" d="M378.8,-90C378.8,-90 348.8,-90 348.8,-90 342.8,-90 336.8,-84 336.8,-78 336.8,-78 336.8,-66 336.8,-66 336.8,-60 342.8,-54 348.8,-54 348.8,-54 378.8,-54 378.8,-54 384.8,-54 390.8,-60 390.8,-66 390.8,-66 390.8,-78 390.8,-78 390.8,-84 384.8,-90 378.8,-90"/>
<text text-anchor="middle" x="363.8" y="-68.3" font-family="Inter,Arial" font-size="14.00" fill="#d0dce3">F[A]</text>
</g>
<!-- Rule&#45;&gt;FA -->
<g id="edge4" class="edge disabled">
<title>Rule&#45;&gt;FA</title>
<path fill="none" stroke="#d0dce3" d="M300.72,-72C309.65,-72 318.34,-72 326.26,-72"/>
<polygon fill="#d0dce3" stroke="#d0dce3" points="326.53,-75.5 336.53,-72 326.53,-68.5 326.53,-75.5"/>
</g>
</g>
</svg>
