<?xml version="1.0" encoding="UTF-8" standalone="no"?>
<!DOCTYPE svg PUBLIC "-//W3C//DTD SVG 1.1//EN"
 "http://www.w3.org/Graphics/SVG/1.1/DTD/svg11.dtd">
<!-- Generated by graphviz version 2.43.0 (0)
 -->
<!-- Title: %3 Pages: 1 -->
<svg width="384pt" height="152pt"
 viewBox="0.00 0.00 384.10 152.00" xmlns="http://www.w3.org/2000/svg" xmlns:xlink="http://www.w3.org/1999/xlink">
<g id="graph0" class="graph" transform="scale(1 1) rotate(0) translate(4 148)">
<title>%3</title>
<!-- F -->
<g id="node1" class="node">
<title>F</title>
<path fill="#ffffff" stroke="#586e75" d="M61,-144C61,-144 31,-144 31,-144 25,-144 19,-138 19,-132 19,-132 19,-120 19,-120 19,-114 25,-108 31,-108 31,-108 61,-108 61,-108 67,-108 73,-114 73,-120 73,-120 73,-132 73,-132 73,-138 67,-144 61,-144"/>
<text text-anchor="middle" x="46" y="-122.3" font-family="Inter,Arial" font-size="14.00" fill="#586e75">F[_]</text>
</g>
<!-- Rule -->
<g id="node4" class="node choice">
<title>Rule</title>
<polygon fill="#586e75" stroke="#586e75" points="207.05,-90 127.95,-72 207.05,-54 286.14,-72 207.05,-90"/>
<text text-anchor="middle" x="207.05" y="-68.3" font-family="Inter,Arial" font-size="14.00" fill="#ffffff">ExtRule[A]</text>
</g>
<!-- F&#45;&gt;Rule -->
<g id="edge1" class="edge">
<title>F&#45;&gt;Rule</title>
<path fill="none" stroke="#586e75" d="M73.26,-117.08C98.12,-108.64 135.84,-95.84 164.73,-86.03"/>
<polygon fill="#586e75" stroke="#586e75" points="166.2,-89.23 174.54,-82.7 163.95,-82.6 166.2,-89.23"/>
</g>
<!-- BoolSym -->
<g id="node2" class="node">
<title>BoolSym</title>
<path fill="#ffffff" stroke="#586e75" d="M80,-90C80,-90 12,-90 12,-90 6,-90 0,-84 0,-78 0,-78 0,-66 0,-66 0,-60 6,-54 12,-54 12,-54 80,-54 80,-54 86,-54 92,-60 92,-66 92,-66 92,-78 92,-78 92,-84 86,-90 80,-90"/>
<text text-anchor="middle" x="46" y="-68.3" font-family="Inter,Arial" font-size="14.00" fill="#586e75">BoolSym[F]</text>
</g>
<!-- BoolSym&#45;&gt;Rule -->
<g id="edge2" class="edge">
<title>BoolSym&#45;&gt;Rule</title>
<path fill="none" stroke="#586e75" d="M92.15,-72C100.29,-72 109.03,-72 117.91,-72"/>
<polygon fill="#586e75" stroke="#586e75" points="117.97,-75.5 127.97,-72 117.97,-68.5 117.97,-75.5"/>
</g>
<!-- RuleSym -->
<g id="node3" class="node">
<title>RuleSym</title>
<path fill="#ffffff" stroke="#586e75" d="M80,-36C80,-36 12,-36 12,-36 6,-36 0,-30 0,-24 0,-24 0,-12 0,-12 0,-6 6,0 12,0 12,0 80,0 80,0 86,0 92,-6 92,-12 92,-12 92,-24 92,-24 92,-30 86,-36 80,-36"/>
<text text-anchor="middle" x="46" y="-14.3" font-family="Inter,Arial" font-size="14.00" fill="#586e75">RuleSym[F]</text>
</g>
<!-- RuleSym&#45;&gt;Rule -->
<g id="edge3" class="edge">
<title>RuleSym&#45;&gt;Rule</title>
<path fill="none" stroke="#586e75" d="M92.15,-33.33C115.03,-41.1 142.61,-50.46 164.9,-58.03"/>
<polygon fill="#586e75" stroke="#586e75" points="163.82,-61.36 174.42,-61.26 166.07,-54.73 163.82,-61.36"/>
</g>
<!-- FA -->
<g id="node5" class="node">
<title>FA</title>
<path fill="#ffffff" stroke="#586e75" d="M364.1,-90C364.1,-90 334.1,-90 334.1,-90 328.1,-90 322.1,-84 322.1,-78 322.1,-78 322.1,-66 322.1,-66 322.1,-60 328.1,-54 334.1,-54 334.1,-54 364.1,-54 364.1,-54 370.1,-54 376.1,-60 376.1,-66 376.1,-66 376.1,-78 376.1,-78 376.1,-84 370.1,-90 364.1,-90"/>
<text text-anchor="middle" x="349.1" y="-68.3" font-family="Inter,Arial" font-size="14.00" fill="#586e75">F[A]</text>
</g>
<!-- Rule&#45;&gt;FA -->
<g id="edge4" class="edge">
<title>Rule&#45;&gt;FA</title>
<path fill="none" stroke="#586e75" d="M286.26,-72C295.23,-72 304.03,-72 312.04,-72"/>
<polygon fill="#586e75" stroke="#586e75" points="312.07,-75.5 322.07,-72 312.07,-68.5 312.07,-75.5"/>
</g>
</g>
</svg>
