<?xml version="1.0" encoding="UTF-8" standalone="no"?>
<!DOCTYPE svg PUBLIC "-//W3C//DTD SVG 1.1//EN"
 "http://www.w3.org/Graphics/SVG/1.1/DTD/svg11.dtd">
<!-- Generated by graphviz version 2.43.0 (0)
 -->
<!-- Title: %3 Pages: 1 -->
<svg width="334pt" height="188pt"
 viewBox="0.00 0.00 333.50 188.00" xmlns="http://www.w3.org/2000/svg" xmlns:xlink="http://www.w3.org/1999/xlink">
<g id="graph0" class="graph" transform="scale(1 1) rotate(0) translate(4 184)">
<title>%3</title>
<!-- AND -->
<g id="node1" class="node operator,disabled">
<title>AND</title>
<path fill="#d0dce3" stroke="#d0dce3" d="M197.5,-180C197.5,-180 167.5,-180 167.5,-180 161.5,-180 155.5,-174 155.5,-168 155.5,-168 155.5,-156 155.5,-156 155.5,-150 161.5,-144 167.5,-144 167.5,-144 197.5,-144 197.5,-144 203.5,-144 209.5,-150 209.5,-156 209.5,-156 209.5,-168 209.5,-168 209.5,-174 203.5,-180 197.5,-180"/>
<text text-anchor="middle" x="182.5" y="-158.3" font-family="Inter,Arial" font-size="14.00" fill="#ffffff">AND</text>
</g>
<!-- eq1 -->
<g id="node2" class="node operator,disabled">
<title>eq1</title>
<path fill="#d0dce3" stroke="#d0dce3" d="M162,-108C162,-108 113,-108 113,-108 107,-108 101,-102 101,-96 101,-96 101,-84 101,-84 101,-78 107,-72 113,-72 113,-72 162,-72 162,-72 168,-72 174,-78 174,-84 174,-84 174,-96 174,-96 174,-102 168,-108 162,-108"/>
<text text-anchor="middle" x="137.5" y="-86.3" font-family="Inter,Arial" font-size="14.00" fill="#ffffff">EQUALS</text>
</g>
<!-- AND&#45;&gt;eq1 -->
<g id="edge1" class="edge disabled">
<title>AND&#45;&gt;eq1</title>
<path fill="none" stroke="#d0dce3" d="M171.38,-143.7C166.14,-135.56 159.8,-125.69 154.02,-116.7"/>
<polygon fill="#d0dce3" stroke="#d0dce3" points="156.85,-114.62 148.5,-108.1 150.96,-118.41 156.85,-114.62"/>
</g>
<!-- eq2 -->
<g id="node3" class="node operator">
<title>eq2</title>
<path fill="#586e75" stroke="#586e75" d="M253,-108C253,-108 204,-108 204,-108 198,-108 192,-102 192,-96 192,-96 192,-84 192,-84 192,-78 198,-72 204,-72 204,-72 253,-72 253,-72 259,-72 265,-78 265,-84 265,-84 265,-96 265,-96 265,-102 259,-108 253,-108"/>
<text text-anchor="middle" x="228.5" y="-86.3" font-family="Inter,Arial" font-size="14.00" fill="#ffffff">EQUALS</text>
</g>
<!-- AND&#45;&gt;eq2 -->
<g id="edge2" class="edge">
<title>AND&#45;&gt;eq2</title>
<path fill="none" stroke="#586e75" d="M193.87,-143.7C199.22,-135.56 205.7,-125.69 211.61,-116.7"/>
<polygon fill="#586e75" stroke="#586e75" points="214.69,-118.38 217.26,-108.1 208.84,-114.54 214.69,-118.38"/>
</g>
<!-- categoryId -->
<!-- eq1&#45;&gt;categoryId -->
<!-- categoryValue -->
<!-- eq1&#45;&gt;categoryValue -->
<!-- price -->
<!-- eq2&#45;&gt;price -->
<!-- priceValue -->
<!-- eq2&#45;&gt;priceValue -->
</g>
</svg>
