<?xml version="1.0" encoding="UTF-8" standalone="no"?>
<!DOCTYPE svg PUBLIC "-//W3C//DTD SVG 1.1//EN"
 "http://www.w3.org/Graphics/SVG/1.1/DTD/svg11.dtd">
<!-- Generated by graphviz version 2.43.0 (0)
 -->
<!-- Title: %3 Pages: 1 -->
<svg width="334pt" height="188pt"
 viewBox="0.00 0.00 333.50 188.00" xmlns="http://www.w3.org/2000/svg" xmlns:xlink="http://www.w3.org/1999/xlink">
<g id="graph0" class="graph" transform="scale(1 1) rotate(0) translate(4 184)">
<title>%3</title>
<!-- AND -->
<g id="node1" class="node operator">
<title>AND</title>
<path fill="#586e75" stroke="#586e75" d="M197.5,-180C197.5,-180 167.5,-180 167.5,-180 161.5,-180 155.5,-174 155.5,-168 155.5,-168 155.5,-156 155.5,-156 155.5,-150 161.5,-144 167.5,-144 167.5,-144 197.5,-144 197.5,-144 203.5,-144 209.5,-150 209.5,-156 209.5,-156 209.5,-168 209.5,-168 209.5,-174 203.5,-180 197.5,-180"/>
<text text-anchor="middle" x="182.5" y="-158.3" font-family="Inter,Arial" font-size="14.00" fill="#ffffff">AND</text>
</g>
<!-- eq1 -->
<g id="node2" class="node operator,disabled">
<title>eq1</title>
<path fill="#d0dce3" stroke="#d0dce3" d="M162,-108C162,-108 113,-108 113,-108 107,-108 101,-102 101,-96 101,-96 101,-84 101,-84 101,-78 107,-72 113,-72 113,-72 162,-72 162,-72 168,-72 174,-78 174,-84 174,-84 174,-96 174,-96 174,-102 168,-108 162,-108"/>
<text text-anchor="middle" x="137.5" y="-86.3" font-family="Inter,Arial" font-size="14.00" fill="#ffffff">EQUALS</text>
</g>
<!-- AND&#45;&gt;eq1 -->
<g id="edge1" class="edge">
<title>AND&#45;&gt;eq1</title>
<path fill="none" stroke="#586e75" d="M171.38,-143.7C166.14,-135.56 159.8,-125.69 154.02,-116.7"/>
<polygon fill="#586e75" stroke="#586e75" points="156.85,-114.62 148.5,-108.1 150.96,-118.41 156.85,-114.62"/>
</g>
<!-- eq2 -->
<g id="node3" class="node operator,disabled">
<title>eq2</title>
<path fill="#d0dce3" stroke="#d0dce3" d="M253,-108C253,-108 204,-108 204,-108 198,-108 192,-102 192,-96 192,-96 192,-84 192,-84 192,-78 198,-72 204,-72 204,-72 253,-72 253,-72 259,-72 265,-78 265,-84 265,-84 265,-96 265,-96 265,-102 259,-108 253,-108"/>
<text text-anchor="middle" x="228.5" y="-86.3" font-family="Inter,Arial" font-size="14.00" fill="#ffffff">EQUALS</text>
</g>
<!-- AND&#45;&gt;eq2 -->
<g id="edge2" class="edge">
<title>AND&#45;&gt;eq2</title>
<path fill="none" stroke="#586e75" d="M193.87,-143.7C199.22,-135.56 205.7,-125.69 211.61,-116.7"/>
<polygon fill="#586e75" stroke="#586e75" points="214.69,-118.38 217.26,-108.1 208.84,-114.54 214.69,-118.38"/>
</g>
<!-- categoryId -->
<g id="node4" class="node value,disabled">
<title>categoryId</title>
<path fill="#ffffff" stroke="#d0dce3" d="M85,-36C85,-36 12,-36 12,-36 6,-36 0,-30 0,-24 0,-24 0,-12 0,-12 0,-6 6,0 12,0 12,0 85,0 85,0 91,0 97,-6 97,-12 97,-12 97,-24 97,-24 97,-30 91,-36 85,-36"/>
<text text-anchor="middle" x="48.5" y="-14.3" font-family="Inter,Arial" font-size="14.00" fill="#d0dce3">$categoryId</text>
</g>
<!-- eq1&#45;&gt;categoryId -->
<g id="edge3" class="edge disabled">
<title>eq1&#45;&gt;categoryId</title>
<path fill="none" stroke="#d0dce3" d="M115.5,-71.7C104.29,-62.88 90.5,-52.03 78.35,-42.47"/>
<polygon fill="#d0dce3" stroke="#d0dce3" points="80.27,-39.54 70.25,-36.1 75.94,-45.04 80.27,-39.54"/>
</g>
<!-- categoryValue -->
<g id="node6" class="node value,disabled">
<title>categoryValue</title>
<path fill="#ffffff" stroke="#d0dce3" d="M157.5,-36C157.5,-36 127.5,-36 127.5,-36 121.5,-36 115.5,-30 115.5,-24 115.5,-24 115.5,-12 115.5,-12 115.5,-6 121.5,0 127.5,0 127.5,0 157.5,0 157.5,0 163.5,0 169.5,-6 169.5,-12 169.5,-12 169.5,-24 169.5,-24 169.5,-30 163.5,-36 157.5,-36"/>
<text text-anchor="middle" x="142.5" y="-14.3" font-family="Inter,Arial" font-size="14.00" fill="#d0dce3">10</text>
</g>
<!-- eq1&#45;&gt;categoryValue -->
<g id="edge4" class="edge disabled">
<title>eq1&#45;&gt;categoryValue</title>
<path fill="none" stroke="#d0dce3" d="M138.74,-71.7C139.29,-63.98 139.95,-54.71 140.56,-46.11"/>
<polygon fill="#d0dce3" stroke="#d0dce3" points="144.06,-46.33 141.28,-36.1 137.07,-45.83 144.06,-46.33"/>
</g>
<!-- price -->
<g id="node5" class="node value,disabled">
<title>price</title>
<path fill="#ffffff" stroke="#d0dce3" d="M241.5,-36C241.5,-36 207.5,-36 207.5,-36 201.5,-36 195.5,-30 195.5,-24 195.5,-24 195.5,-12 195.5,-12 195.5,-6 201.5,0 207.5,0 207.5,0 241.5,0 241.5,0 247.5,0 253.5,-6 253.5,-12 253.5,-12 253.5,-24 253.5,-24 253.5,-30 247.5,-36 241.5,-36"/>
<text text-anchor="middle" x="224.5" y="-14.3" font-family="Inter,Arial" font-size="14.00" fill="#d0dce3">$price</text>
</g>
<!-- eq2&#45;&gt;price -->
<g id="edge5" class="edge disabled">
<title>eq2&#45;&gt;price</title>
<path fill="none" stroke="#d0dce3" d="M227.51,-71.7C227.07,-63.98 226.54,-54.71 226.05,-46.11"/>
<polygon fill="#d0dce3" stroke="#d0dce3" points="229.54,-45.89 225.48,-36.1 222.55,-46.29 229.54,-45.89"/>
</g>
<!-- priceValue -->
<g id="node7" class="node value,disabled">
<title>priceValue</title>
<path fill="#ffffff" stroke="#d0dce3" d="M313.5,-36C313.5,-36 283.5,-36 283.5,-36 277.5,-36 271.5,-30 271.5,-24 271.5,-24 271.5,-12 271.5,-12 271.5,-6 277.5,0 283.5,0 283.5,0 313.5,0 313.5,0 319.5,0 325.5,-6 325.5,-12 325.5,-12 325.5,-24 325.5,-24 325.5,-30 319.5,-36 313.5,-36"/>
<text text-anchor="middle" x="298.5" y="-14.3" font-family="Inter,Arial" font-size="14.00" fill="#d0dce3">3</text>
</g>
<!-- eq2&#45;&gt;priceValue -->
<g id="edge6" class="edge disabled">
<title>eq2&#45;&gt;priceValue</title>
<path fill="none" stroke="#d0dce3" d="M245.8,-71.7C254.36,-63.14 264.84,-52.66 274.2,-43.3"/>
<polygon fill="#d0dce3" stroke="#d0dce3" points="276.8,-45.65 281.4,-36.1 271.85,-40.7 276.8,-45.65"/>
</g>
</g>
</svg>
