<?xml version="1.0" encoding="UTF-8" standalone="no"?>
<!DOCTYPE svg PUBLIC "-//W3C//DTD SVG 1.1//EN"
 "http://www.w3.org/Graphics/SVG/1.1/DTD/svg11.dtd">
<!-- Generated by graphviz version 2.43.0 (0)
 -->
<!-- Title: %3 Pages: 1 -->
<svg width="345pt" height="152pt"
 viewBox="0.00 0.00 345.49 152.00" xmlns="http://www.w3.org/2000/svg" xmlns:xlink="http://www.w3.org/1999/xlink">
<g id="graph0" class="graph" transform="scale(1 1) rotate(0) translate(4 148)">
<title>%3</title>
<!-- F -->
<g id="node1" class="node disabled">
<title>F</title>
<path fill="#ffffff" stroke="#d0dce3" d="M61,-144C61,-144 31,-144 31,-144 25,-144 19,-138 19,-132 19,-132 19,-120 19,-120 19,-114 25,-108 31,-108 31,-108 61,-108 61,-108 67,-108 73,-114 73,-120 73,-120 73,-132 73,-132 73,-138 67,-144 61,-144"/>
<text text-anchor="middle" x="46" y="-122.3" font-family="Inter,Arial" font-size="14.00" fill="#d0dce3">F[_]</text>
</g>
<!-- Rule -->
<g id="node4" class="node choice">
<title>Rule</title>
<polygon fill="#586e75" stroke="#586e75" points="187.75,-90 127.75,-72 187.75,-54 247.74,-72 187.75,-90"/>
<text text-anchor="middle" x="187.75" y="-68.3" font-family="Inter,Arial" font-size="14.00" fill="#ffffff">Rule[A]</text>
</g>
<!-- F&#45;&gt;Rule -->
<g id="edge1" class="edge disabled">
<title>F&#45;&gt;Rule</title>
<path fill="none" stroke="#d0dce3" d="M73.29,-115.84C95.24,-107.36 126.77,-95.18 151.01,-85.81"/>
<polygon fill="#d0dce3" stroke="#d0dce3" points="152.51,-88.98 160.58,-82.11 149.99,-82.45 152.51,-88.98"/>
</g>
<!-- BoolSym -->
<g id="node2" class="node disabled">
<title>BoolSym</title>
<path fill="#ffffff" stroke="#d0dce3" d="M80,-90C80,-90 12,-90 12,-90 6,-90 0,-84 0,-78 0,-78 0,-66 0,-66 0,-60 6,-54 12,-54 12,-54 80,-54 80,-54 86,-54 92,-60 92,-66 92,-66 92,-78 92,-78 92,-84 86,-90 80,-90"/>
<text text-anchor="middle" x="46" y="-68.3" font-family="Inter,Arial" font-size="14.00" fill="#d0dce3">BoolSym[F]</text>
</g>
<!-- BoolSym&#45;&gt;Rule -->
<g id="edge2" class="edge disabled">
<title>BoolSym&#45;&gt;Rule</title>
<path fill="none" stroke="#d0dce3" d="M92.37,-72C100.51,-72 109.15,-72 117.77,-72"/>
<polygon fill="#d0dce3" stroke="#d0dce3" points="117.85,-75.5 127.85,-72 117.85,-68.5 117.85,-75.5"/>
</g>
<!-- RuleSym -->
<g id="node3" class="node disabled">
<title>RuleSym</title>
<path fill="#ffffff" stroke="#d0dce3" d="M80,-36C80,-36 12,-36 12,-36 6,-36 0,-30 0,-24 0,-24 0,-12 0,-12 0,-6 6,0 12,0 12,0 80,0 80,0 86,0 92,-6 92,-12 92,-12 92,-24 92,-24 92,-30 86,-36 80,-36"/>
<text text-anchor="middle" x="46" y="-14.3" font-family="Inter,Arial" font-size="14.00" fill="#d0dce3">RuleSym[F]</text>
</g>
<!-- RuleSym&#45;&gt;Rule -->
<g id="edge3" class="edge disabled">
<title>RuleSym&#45;&gt;Rule</title>
<path fill="none" stroke="#d0dce3" d="M92.37,-35.53C111.47,-42.91 133.36,-51.37 151.25,-58.28"/>
<polygon fill="#d0dce3" stroke="#d0dce3" points="150.14,-61.61 160.73,-61.95 152.67,-55.08 150.14,-61.61"/>
</g>
<!-- FA -->
<g id="node5" class="node disabled">
<title>FA</title>
<path fill="#ffffff" stroke="#d0dce3" d="M325.49,-90C325.49,-90 295.49,-90 295.49,-90 289.49,-90 283.49,-84 283.49,-78 283.49,-78 283.49,-66 283.49,-66 283.49,-60 289.49,-54 295.49,-54 295.49,-54 325.49,-54 325.49,-54 331.49,-54 337.49,-60 337.49,-66 337.49,-66 337.49,-78 337.49,-78 337.49,-84 331.49,-90 325.49,-90"/>
<text text-anchor="middle" x="310.49" y="-68.3" font-family="Inter,Arial" font-size="14.00" fill="#d0dce3">F[A]</text>
</g>
<!-- Rule&#45;&gt;FA -->
<g id="edge4" class="edge disabled">
<title>Rule&#45;&gt;FA</title>
<path fill="none" stroke="#d0dce3" d="M247.7,-72C256.44,-72 265.22,-72 273.31,-72"/>
<polygon fill="#d0dce3" stroke="#d0dce3" points="273.48,-75.5 283.48,-72 273.48,-68.5 273.48,-75.5"/>
</g>
</g>
</svg>
