<?xml version="1.0" encoding="UTF-8" standalone="no"?>
<!DOCTYPE svg PUBLIC "-//W3C//DTD SVG 1.1//EN"
 "http://www.w3.org/Graphics/SVG/1.1/DTD/svg11.dtd">
<!-- Generated by graphviz version 2.43.0 (0)
 -->
<!-- Title: %3 Pages: 1 -->
<svg width="336pt" height="44pt"
 viewBox="0.00 0.00 336.04 44.00" xmlns="http://www.w3.org/2000/svg" xmlns:xlink="http://www.w3.org/1999/xlink">
<g id="graph0" class="graph" transform="scale(1 1) rotate(0) translate(4 40)">
<title>%3</title>
<!-- RuleSym -->
<g id="node1" class="node choice,disabled">
<title>RuleSym</title>
<polygon fill="#d0dce3" stroke="#d0dce3" points="158.02,-36 89.98,-18 158.02,0 226.05,-18 158.02,-36"/>
<text text-anchor="middle" x="158.02" y="-14.3" font-family="Inter,Arial" font-size="14.00" fill="#ffffff">RuleSym</text>
</g>
<!-- ExtRule -->
<g id="node3" class="node">
<title>ExtRule</title>
<path fill="#ffffff" stroke="#586e75" d="M316.04,-36C316.04,-36 274.04,-36 274.04,-36 268.04,-36 262.04,-30 262.04,-24 262.04,-24 262.04,-12 262.04,-12 262.04,-6 268.04,0 274.04,0 274.04,0 316.04,0 316.04,0 322.04,0 328.04,-6 328.04,-12 328.04,-12 328.04,-24 328.04,-24 328.04,-30 322.04,-36 316.04,-36"/>
<text text-anchor="middle" x="295.04" y="-14.3" font-family="Inter,Arial" font-size="14.00" fill="#586e75">ExtRule</text>
</g>
<!-- RuleSym&#45;&gt;ExtRule -->
<g id="edge2" class="edge disabled">
<title>RuleSym&#45;&gt;ExtRule</title>
<path fill="none" stroke="#d0dce3" d="M226.13,-18C234.88,-18 243.64,-18 251.82,-18"/>
<polygon fill="#d0dce3" stroke="#d0dce3" points="251.82,-21.5 261.82,-18 251.82,-14.5 251.82,-21.5"/>
</g>
<!-- Rule -->
<g id="node2" class="node disabled">
<title>Rule</title>
<path fill="#ffffff" stroke="#d0dce3" d="M42,-36C42,-36 12,-36 12,-36 6,-36 0,-30 0,-24 0,-24 0,-12 0,-12 0,-6 6,0 12,0 12,0 42,0 42,0 48,0 54,-6 54,-12 54,-12 54,-24 54,-24 54,-30 48,-36 42,-36"/>
<text text-anchor="middle" x="27" y="-14.3" font-family="Inter,Arial" font-size="14.00" fill="#d0dce3">Rule</text>
</g>
<!-- Rule&#45;&gt;RuleSym -->
<g id="edge1" class="edge disabled">
<title>Rule&#45;&gt;RuleSym</title>
<path fill="none" stroke="#d0dce3" d="M54.11,-18C61.79,-18 70.61,-18 79.78,-18"/>
<polygon fill="#d0dce3" stroke="#d0dce3" points="79.85,-21.5 89.85,-18 79.85,-14.5 79.85,-21.5"/>
</g>
</g>
</svg>
