<?xml version="1.0" encoding="UTF-8" standalone="no"?>
<!DOCTYPE svg PUBLIC "-//W3C//DTD SVG 1.1//EN"
 "http://www.w3.org/Graphics/SVG/1.1/DTD/svg11.dtd">
<!-- Generated by graphviz version 2.43.0 (0)
 -->
<!-- Title: %3 Pages: 1 -->
<svg width="344pt" height="98pt"
 viewBox="0.00 0.00 344.04 98.00" xmlns="http://www.w3.org/2000/svg" xmlns:xlink="http://www.w3.org/1999/xlink">
<g id="graph0" class="graph" transform="scale(1 1) rotate(0) translate(4 94)">
<title>%3</title>
<!-- RuleSym -->
<g id="node1" class="node choice,disabled">
<title>RuleSym</title>
<polygon fill="#d0dce3" stroke="#d0dce3" points="158.02,-63 89.98,-45 158.02,-27 226.05,-45 158.02,-63"/>
<text text-anchor="middle" x="158.02" y="-41.3" font-family="Inter,Arial" font-size="14.00" fill="#ffffff">RuleSym</text>
</g>
<!-- Context -->
<g id="node3" class="node">
<title>Context</title>
<path fill="#ffffff" stroke="#586e75" d="M322.04,-90C322.04,-90 276.04,-90 276.04,-90 270.04,-90 264.04,-84 264.04,-78 264.04,-78 264.04,-66 264.04,-66 264.04,-60 270.04,-54 276.04,-54 276.04,-54 322.04,-54 322.04,-54 328.04,-54 334.04,-60 334.04,-66 334.04,-66 334.04,-78 334.04,-78 334.04,-84 328.04,-90 322.04,-90"/>
<text text-anchor="middle" x="299.04" y="-68.3" font-family="Inter,Arial" font-size="14.00" fill="#586e75">Context</text>
</g>
<!-- RuleSym&#45;&gt;Context -->
<g id="edge2" class="edge disabled">
<title>RuleSym&#45;&gt;Context</title>
<path fill="none" stroke="#d0dce3" d="M197.74,-52.52C215.15,-55.9 235.79,-59.91 253.8,-63.41"/>
<polygon fill="#d0dce3" stroke="#d0dce3" points="253.3,-66.88 263.78,-65.35 254.63,-60 253.3,-66.88"/>
</g>
<!-- BoolRule -->
<g id="node4" class="node">
<title>BoolRule</title>
<path fill="#ffffff" stroke="#586e75" d="M324.04,-36C324.04,-36 274.04,-36 274.04,-36 268.04,-36 262.04,-30 262.04,-24 262.04,-24 262.04,-12 262.04,-12 262.04,-6 268.04,0 274.04,0 274.04,0 324.04,0 324.04,0 330.04,0 336.04,-6 336.04,-12 336.04,-12 336.04,-24 336.04,-24 336.04,-30 330.04,-36 324.04,-36"/>
<text text-anchor="middle" x="299.04" y="-14.3" font-family="Inter,Arial" font-size="14.00" fill="#586e75">BoolRule</text>
</g>
<!-- RuleSym&#45;&gt;BoolRule -->
<g id="edge3" class="edge disabled">
<title>RuleSym&#45;&gt;BoolRule</title>
<path fill="none" stroke="#d0dce3" d="M197.74,-37.48C214.53,-34.22 234.32,-30.37 251.87,-26.97"/>
<polygon fill="#d0dce3" stroke="#d0dce3" points="252.75,-30.36 261.9,-25.02 251.42,-23.49 252.75,-30.36"/>
</g>
<!-- Rule -->
<g id="node2" class="node disabled">
<title>Rule</title>
<path fill="#ffffff" stroke="#d0dce3" d="M42,-63C42,-63 12,-63 12,-63 6,-63 0,-57 0,-51 0,-51 0,-39 0,-39 0,-33 6,-27 12,-27 12,-27 42,-27 42,-27 48,-27 54,-33 54,-39 54,-39 54,-51 54,-51 54,-57 48,-63 42,-63"/>
<text text-anchor="middle" x="27" y="-41.3" font-family="Inter,Arial" font-size="14.00" fill="#d0dce3">Rule</text>
</g>
<!-- Rule&#45;&gt;RuleSym -->
<g id="edge1" class="edge disabled">
<title>Rule&#45;&gt;RuleSym</title>
<path fill="none" stroke="#d0dce3" d="M54.11,-45C61.79,-45 70.61,-45 79.78,-45"/>
<polygon fill="#d0dce3" stroke="#d0dce3" points="79.85,-48.5 89.85,-45 79.85,-41.5 79.85,-48.5"/>
</g>
</g>
</svg>
