<?xml version="1.0" encoding="UTF-8" standalone="no"?>
<!DOCTYPE svg PUBLIC "-//W3C//DTD SVG 1.1//EN"
 "http://www.w3.org/Graphics/SVG/1.1/DTD/svg11.dtd">
<!-- Generated by graphviz version 2.43.0 (0)
 -->
<!-- Title: %3 Pages: 1 -->
<svg width="344pt" height="55pt"
 viewBox="0.00 0.00 344.04 55.00" xmlns="http://www.w3.org/2000/svg" xmlns:xlink="http://www.w3.org/1999/xlink">
<g id="graph0" class="graph" transform="scale(1 1) rotate(0) translate(4 51)">
<title>%3</title>
<!-- RuleSym -->
<g id="node1" class="node choice">
<title>RuleSym</title>
<polygon fill="#586e75" stroke="#586e75" points="158.02,-41.5 89.98,-23.5 158.02,-5.5 226.05,-23.5 158.02,-41.5"/>
<text text-anchor="middle" x="158.02" y="-19.8" font-family="Inter,Arial" font-size="14.00" fill="#ffffff">RuleSym</text>
</g>
<!-- out -->
<g id="node2" class="node">
<title>out</title>
<path fill="#ffffff" stroke="#586e75" d="M274.04,-0.5C274.04,-0.5 324.04,-0.5 324.04,-0.5 330.04,-0.5 336.04,-6.5 336.04,-12.5 336.04,-12.5 336.04,-34.5 336.04,-34.5 336.04,-40.5 330.04,-46.5 324.04,-46.5 324.04,-46.5 274.04,-46.5 274.04,-46.5 268.04,-46.5 262.04,-40.5 262.04,-34.5 262.04,-34.5 262.04,-12.5 262.04,-12.5 262.04,-6.5 268.04,-0.5 274.04,-0.5"/>
<text text-anchor="middle" x="299.04" y="-31.3" font-family="Inter,Arial" font-size="14.00" fill="#586e75">Context</text>
<polyline fill="none" stroke="#586e75" points="262.04,-23.5 336.04,-23.5 "/>
<text text-anchor="middle" x="299.04" y="-8.3" font-family="Inter,Arial" font-size="14.00" fill="#586e75">BoolRule</text>
</g>
<!-- RuleSym&#45;&gt;out -->
<g id="edge2" class="edge">
<title>RuleSym&#45;&gt;out</title>
<path fill="none" stroke="#586e75" d="M226.08,-23.5C234.77,-23.5 243.51,-23.5 251.76,-23.5"/>
<polygon fill="#586e75" stroke="#586e75" points="251.9,-27 261.9,-23.5 251.9,-20 251.9,-27"/>
</g>
<!-- Rule -->
<g id="node3" class="node">
<title>Rule</title>
<path fill="#ffffff" stroke="#586e75" d="M42,-41.5C42,-41.5 12,-41.5 12,-41.5 6,-41.5 0,-35.5 0,-29.5 0,-29.5 0,-17.5 0,-17.5 0,-11.5 6,-5.5 12,-5.5 12,-5.5 42,-5.5 42,-5.5 48,-5.5 54,-11.5 54,-17.5 54,-17.5 54,-29.5 54,-29.5 54,-35.5 48,-41.5 42,-41.5"/>
<text text-anchor="middle" x="27" y="-19.8" font-family="Inter,Arial" font-size="14.00" fill="#586e75">Rule</text>
</g>
<!-- Rule&#45;&gt;RuleSym -->
<g id="edge1" class="edge">
<title>Rule&#45;&gt;RuleSym</title>
<path fill="none" stroke="#586e75" d="M54.11,-23.5C61.79,-23.5 70.61,-23.5 79.78,-23.5"/>
<polygon fill="#586e75" stroke="#586e75" points="79.85,-27 89.85,-23.5 79.85,-20 79.85,-27"/>
</g>
</g>
</svg>
