<?xml version="1.0" encoding="UTF-8" standalone="no"?>
<!DOCTYPE svg PUBLIC "-//W3C//DTD SVG 1.1//EN"
 "http://www.w3.org/Graphics/SVG/1.1/DTD/svg11.dtd">
<!-- Generated by graphviz version 2.43.0 (0)
 -->
<!-- Title: %3 Pages: 1 -->
<svg width="340pt" height="98pt"
 viewBox="0.00 0.00 340.04 98.00" xmlns="http://www.w3.org/2000/svg" xmlns:xlink="http://www.w3.org/1999/xlink">
<g id="graph0" class="graph" transform="scale(1 1) rotate(0) translate(4 94)">
<title>%3</title>
<!-- RuleSym -->
<g id="node1" class="node choice,disabled">
<title>RuleSym</title>
<polygon fill="#d0dce3" stroke="#d0dce3" points="158.02,-63 89.98,-45 158.02,-27 226.05,-45 158.02,-63"/>
<text text-anchor="middle" x="158.02" y="-41.3" font-family="Inter,Arial" font-size="14.00" fill="#ffffff">RuleSym</text>
</g>
<!-- Context -->
<g id="node3" class="node">
<title>Context</title>
<path fill="#ffffff" stroke="#586e75" d="M320.04,-90C320.04,-90 274.04,-90 274.04,-90 268.04,-90 262.04,-84 262.04,-78 262.04,-78 262.04,-66 262.04,-66 262.04,-60 268.04,-54 274.04,-54 274.04,-54 320.04,-54 320.04,-54 326.04,-54 332.04,-60 332.04,-66 332.04,-66 332.04,-78 332.04,-78 332.04,-84 326.04,-90 320.04,-90"/>
<text text-anchor="middle" x="297.04" y="-68.3" font-family="Inter,Arial" font-size="14.00" fill="#586e75">Context</text>
</g>
<!-- RuleSym&#45;&gt;Context -->
<g id="edge2" class="edge disabled">
<title>RuleSym&#45;&gt;Context</title>
<path fill="none" stroke="#d0dce3" d="M197.55,-52.59C214.49,-55.93 234.47,-59.87 252,-63.32"/>
<polygon fill="#d0dce3" stroke="#d0dce3" points="251.5,-66.79 261.99,-65.29 252.86,-59.92 251.5,-66.79"/>
</g>
<!-- ExtRule -->
<g id="node4" class="node">
<title>ExtRule</title>
<path fill="#ffffff" stroke="#586e75" d="M318.04,-36C318.04,-36 276.04,-36 276.04,-36 270.04,-36 264.04,-30 264.04,-24 264.04,-24 264.04,-12 264.04,-12 264.04,-6 270.04,0 276.04,0 276.04,0 318.04,0 318.04,0 324.04,0 330.04,-6 330.04,-12 330.04,-12 330.04,-24 330.04,-24 330.04,-30 324.04,-36 318.04,-36"/>
<text text-anchor="middle" x="297.04" y="-14.3" font-family="Inter,Arial" font-size="14.00" fill="#586e75">ExtRule</text>
</g>
<!-- RuleSym&#45;&gt;ExtRule -->
<g id="edge3" class="edge disabled">
<title>RuleSym&#45;&gt;ExtRule</title>
<path fill="none" stroke="#d0dce3" d="M197.55,-37.41C215.1,-33.95 235.92,-29.85 253.88,-26.31"/>
<polygon fill="#d0dce3" stroke="#d0dce3" points="254.67,-29.72 263.81,-24.35 253.32,-22.85 254.67,-29.72"/>
</g>
<!-- Rule -->
<g id="node2" class="node disabled">
<title>Rule</title>
<path fill="#ffffff" stroke="#d0dce3" d="M42,-63C42,-63 12,-63 12,-63 6,-63 0,-57 0,-51 0,-51 0,-39 0,-39 0,-33 6,-27 12,-27 12,-27 42,-27 42,-27 48,-27 54,-33 54,-39 54,-39 54,-51 54,-51 54,-57 48,-63 42,-63"/>
<text text-anchor="middle" x="27" y="-41.3" font-family="Inter,Arial" font-size="14.00" fill="#d0dce3">Rule</text>
</g>
<!-- Rule&#45;&gt;RuleSym -->
<g id="edge1" class="edge disabled">
<title>Rule&#45;&gt;RuleSym</title>
<path fill="none" stroke="#d0dce3" d="M54.11,-45C61.79,-45 70.61,-45 79.78,-45"/>
<polygon fill="#d0dce3" stroke="#d0dce3" points="79.85,-48.5 89.85,-45 79.85,-41.5 79.85,-48.5"/>
</g>
</g>
</svg>
