<?xml version="1.0" encoding="UTF-8" standalone="no"?>
<!DOCTYPE svg PUBLIC "-//W3C//DTD SVG 1.1//EN"
 "http://www.w3.org/Graphics/SVG/1.1/DTD/svg11.dtd">
<!-- Generated by graphviz version 2.43.0 (0)
 -->
<!-- Title: %3 Pages: 1 -->
<svg width="486pt" height="188pt"
 viewBox="0.00 0.00 486.00 188.00" xmlns="http://www.w3.org/2000/svg" xmlns:xlink="http://www.w3.org/1999/xlink">
<g id="graph0" class="graph" transform="scale(1 1) rotate(0) translate(4 184)">
<title>%3</title>
<!-- and -->
<g id="node1" class="node operator">
<title>and</title>
<path fill="#586e75" stroke="#586e75" d="M289.5,-180C289.5,-180 259.5,-180 259.5,-180 253.5,-180 247.5,-174 247.5,-168 247.5,-168 247.5,-156 247.5,-156 247.5,-150 253.5,-144 259.5,-144 259.5,-144 289.5,-144 289.5,-144 295.5,-144 301.5,-150 301.5,-156 301.5,-156 301.5,-168 301.5,-168 301.5,-174 295.5,-180 289.5,-180"/>
<text text-anchor="middle" x="274.5" y="-158.3" font-family="Inter,Arial" font-size="14.00" fill="#ffffff">and</text>
</g>
<!-- eq1 -->
<g id="node2" class="node operator,disabled">
<title>eq1</title>
<path fill="#d0dce3" stroke="#d0dce3" d="M231.5,-108C231.5,-108 201.5,-108 201.5,-108 195.5,-108 189.5,-102 189.5,-96 189.5,-96 189.5,-84 189.5,-84 189.5,-78 195.5,-72 201.5,-72 201.5,-72 231.5,-72 231.5,-72 237.5,-72 243.5,-78 243.5,-84 243.5,-84 243.5,-96 243.5,-96 243.5,-102 237.5,-108 231.5,-108"/>
<text text-anchor="middle" x="216.5" y="-86.3" font-family="Inter,Arial" font-size="14.00" fill="#ffffff">equal</text>
</g>
<!-- and&#45;&gt;eq1 -->
<g id="edge1" class="edge disabled">
<title>and&#45;&gt;eq1</title>
<path fill="none" stroke="#d0dce3" d="M260.16,-143.7C253.21,-135.3 244.73,-125.07 237.1,-115.86"/>
<polygon fill="#d0dce3" stroke="#d0dce3" points="239.75,-113.57 230.67,-108.1 234.36,-118.04 239.75,-113.57"/>
</g>
<!-- eq2 -->
<g id="node3" class="node operator,disabled">
<title>eq2</title>
<path fill="#d0dce3" stroke="#d0dce3" d="M347.5,-108C347.5,-108 317.5,-108 317.5,-108 311.5,-108 305.5,-102 305.5,-96 305.5,-96 305.5,-84 305.5,-84 305.5,-78 311.5,-72 317.5,-72 317.5,-72 347.5,-72 347.5,-72 353.5,-72 359.5,-78 359.5,-84 359.5,-84 359.5,-96 359.5,-96 359.5,-102 353.5,-108 347.5,-108"/>
<text text-anchor="middle" x="332.5" y="-86.3" font-family="Inter,Arial" font-size="14.00" fill="#ffffff">equal</text>
</g>
<!-- and&#45;&gt;eq2 -->
<g id="edge2" class="edge disabled">
<title>and&#45;&gt;eq2</title>
<path fill="none" stroke="#d0dce3" d="M288.84,-143.7C295.79,-135.3 304.27,-125.07 311.9,-115.86"/>
<polygon fill="#d0dce3" stroke="#d0dce3" points="314.64,-118.04 318.33,-108.1 309.25,-113.57 314.64,-118.04"/>
</g>
<!-- categoryId -->
<g id="node4" class="node value,disabled">
<title>categoryId</title>
<path fill="#ffffff" stroke="#d0dce3" d="M151,-36C151,-36 12,-36 12,-36 6,-36 0,-30 0,-24 0,-24 0,-12 0,-12 0,-6 6,0 12,0 12,0 151,0 151,0 157,0 163,-6 163,-12 163,-12 163,-24 163,-24 163,-30 157,-36 151,-36"/>
<text text-anchor="middle" x="81.5" y="-14.3" font-family="Inter,Arial" font-size="14.00" fill="#d0dce3">variable(&quot;categoryId&quot;)</text>
</g>
<!-- eq1&#45;&gt;categoryId -->
<g id="edge3" class="edge disabled">
<title>eq1&#45;&gt;categoryId</title>
<path fill="none" stroke="#d0dce3" d="M189.18,-74.83C170.3,-65.05 144.84,-51.84 123.41,-40.73"/>
<polygon fill="#d0dce3" stroke="#d0dce3" points="124.99,-37.61 114.5,-36.11 121.77,-43.82 124.99,-37.61"/>
</g>
<!-- categoryValue -->
<g id="node6" class="node value,disabled">
<title>categoryValue</title>
<path fill="#ffffff" stroke="#d0dce3" d="M240,-36C240,-36 193,-36 193,-36 187,-36 181,-30 181,-24 181,-24 181,-12 181,-12 181,-6 187,0 193,0 193,0 240,0 240,0 246,0 252,-6 252,-12 252,-12 252,-24 252,-24 252,-30 246,-36 240,-36"/>
<text text-anchor="middle" x="216.5" y="-14.3" font-family="Inter,Arial" font-size="14.00" fill="#d0dce3">num(10)</text>
</g>
<!-- eq1&#45;&gt;categoryValue -->
<g id="edge4" class="edge disabled">
<title>eq1&#45;&gt;categoryValue</title>
<path fill="none" stroke="#d0dce3" d="M216.5,-71.7C216.5,-63.98 216.5,-54.71 216.5,-46.11"/>
<polygon fill="#d0dce3" stroke="#d0dce3" points="220,-46.1 216.5,-36.1 213,-46.1 220,-46.1"/>
</g>
<!-- price -->
<g id="node5" class="node value,disabled">
<title>price</title>
<path fill="#ffffff" stroke="#d0dce3" d="M382.5,-36C382.5,-36 282.5,-36 282.5,-36 276.5,-36 270.5,-30 270.5,-24 270.5,-24 270.5,-12 270.5,-12 270.5,-6 276.5,0 282.5,0 282.5,0 382.5,0 382.5,0 388.5,0 394.5,-6 394.5,-12 394.5,-12 394.5,-24 394.5,-24 394.5,-30 388.5,-36 382.5,-36"/>
<text text-anchor="middle" x="332.5" y="-14.3" font-family="Inter,Arial" font-size="14.00" fill="#d0dce3">variable(&quot;price&quot;)</text>
</g>
<!-- eq2&#45;&gt;price -->
<g id="edge5" class="edge disabled">
<title>eq2&#45;&gt;price</title>
<path fill="none" stroke="#d0dce3" d="M332.5,-71.7C332.5,-63.98 332.5,-54.71 332.5,-46.11"/>
<polygon fill="#d0dce3" stroke="#d0dce3" points="336,-46.1 332.5,-36.1 329,-46.1 336,-46.1"/>
</g>
<!-- priceValue -->
<g id="node7" class="node value,disabled">
<title>priceValue</title>
<path fill="#ffffff" stroke="#d0dce3" d="M466,-36C466,-36 425,-36 425,-36 419,-36 413,-30 413,-24 413,-24 413,-12 413,-12 413,-6 419,0 425,0 425,0 466,0 466,0 472,0 478,-6 478,-12 478,-12 478,-24 478,-24 478,-30 472,-36 466,-36"/>
<text text-anchor="middle" x="445.5" y="-14.3" font-family="Inter,Arial" font-size="14.00" fill="#d0dce3">num(3)</text>
</g>
<!-- eq2&#45;&gt;priceValue -->
<g id="edge6" class="edge disabled">
<title>eq2&#45;&gt;priceValue</title>
<path fill="none" stroke="#d0dce3" d="M359.57,-72.23C374.44,-63.02 393.09,-51.47 409.21,-41.48"/>
<polygon fill="#d0dce3" stroke="#d0dce3" points="411.21,-44.36 417.87,-36.12 407.53,-38.41 411.21,-44.36"/>
</g>
</g>
</svg>
