<?xml version="1.0" encoding="UTF-8" standalone="no"?>
<!DOCTYPE svg PUBLIC "-//W3C//DTD SVG 1.1//EN"
 "http://www.w3.org/Graphics/SVG/1.1/DTD/svg11.dtd">
<!-- Generated by graphviz version 2.43.0 (0)
 -->
<!-- Title: %3 Pages: 1 -->
<svg width="486pt" height="188pt"
 viewBox="0.00 0.00 486.00 188.00" xmlns="http://www.w3.org/2000/svg" xmlns:xlink="http://www.w3.org/1999/xlink">
<g id="graph0" class="graph" transform="scale(1 1) rotate(0) translate(4 184)">
<title>%3</title>
<!-- AND -->
<g id="node1" class="node operator,disabled">
<title>AND</title>
<path fill="#d0dce3" stroke="#d0dce3" d="M289.5,-180C289.5,-180 259.5,-180 259.5,-180 253.5,-180 247.5,-174 247.5,-168 247.5,-168 247.5,-156 247.5,-156 247.5,-150 253.5,-144 259.5,-144 259.5,-144 289.5,-144 289.5,-144 295.5,-144 301.5,-150 301.5,-156 301.5,-156 301.5,-168 301.5,-168 301.5,-174 295.5,-180 289.5,-180"/>
<text text-anchor="middle" x="274.5" y="-158.3" font-family="Inter,Arial" font-size="14.00" fill="#ffffff">AND</text>
</g>
<!-- eq1 -->
<g id="node2" class="node operator,rm">
<title>eq1</title>
<path fill="#923a41" stroke="#923a41" d="M241,-108C241,-108 192,-108 192,-108 186,-108 180,-102 180,-96 180,-96 180,-84 180,-84 180,-78 186,-72 192,-72 192,-72 241,-72 241,-72 247,-72 253,-78 253,-84 253,-84 253,-96 253,-96 253,-102 247,-108 241,-108"/>
<text text-anchor="middle" x="216.5" y="-86.3" font-family="Inter,Arial" font-size="14.00" fill="#fdb8c0">EQUALS</text>
</g>
<!-- AND&#45;&gt;eq1 -->
<g id="edge1" class="edge disabled">
<title>AND&#45;&gt;eq1</title>
<path fill="none" stroke="#d0dce3" d="M260.16,-143.7C253.21,-135.3 244.73,-125.07 237.1,-115.86"/>
<polygon fill="#d0dce3" stroke="#d0dce3" points="239.75,-113.57 230.67,-108.1 234.36,-118.04 239.75,-113.57"/>
</g>
<!-- eq2 -->
<g id="node3" class="node operator,rm">
<title>eq2</title>
<path fill="#923a41" stroke="#923a41" d="M357,-108C357,-108 308,-108 308,-108 302,-108 296,-102 296,-96 296,-96 296,-84 296,-84 296,-78 302,-72 308,-72 308,-72 357,-72 357,-72 363,-72 369,-78 369,-84 369,-84 369,-96 369,-96 369,-102 363,-108 357,-108"/>
<text text-anchor="middle" x="332.5" y="-86.3" font-family="Inter,Arial" font-size="14.00" fill="#fdb8c0">EQUALS</text>
</g>
<!-- AND&#45;&gt;eq2 -->
<g id="edge2" class="edge disabled">
<title>AND&#45;&gt;eq2</title>
<path fill="none" stroke="#d0dce3" d="M288.84,-143.7C295.79,-135.3 304.27,-125.07 311.9,-115.86"/>
<polygon fill="#d0dce3" stroke="#d0dce3" points="314.64,-118.04 318.33,-108.1 309.25,-113.57 314.64,-118.04"/>
</g>
<!-- categoryId -->
<g id="node4" class="node value,disabled">
<title>categoryId</title>
<path fill="#ffffff" stroke="#d0dce3" d="M151,-36C151,-36 12,-36 12,-36 6,-36 0,-30 0,-24 0,-24 0,-12 0,-12 0,-6 6,0 12,0 12,0 151,0 151,0 157,0 163,-6 163,-12 163,-12 163,-24 163,-24 163,-30 157,-36 151,-36"/>
<text text-anchor="middle" x="81.5" y="-14.3" font-family="Inter,Arial" font-size="14.00" fill="#d0dce3">variable(&quot;categoryId&quot;)</text>
</g>
<!-- eq1&#45;&gt;categoryId -->
<g id="edge3" class="edge disabled">
<title>eq1&#45;&gt;categoryId</title>
<path fill="none" stroke="#d0dce3" d="M183.48,-71.88C165.42,-62.51 142.85,-50.81 123.55,-40.8"/>
<polygon fill="#d0dce3" stroke="#d0dce3" points="125.14,-37.69 114.65,-36.19 121.92,-43.9 125.14,-37.69"/>
</g>
<!-- categoryValue -->
<g id="node6" class="node value,disabled">
<title>categoryValue</title>
<path fill="#ffffff" stroke="#d0dce3" d="M240,-36C240,-36 193,-36 193,-36 187,-36 181,-30 181,-24 181,-24 181,-12 181,-12 181,-6 187,0 193,0 193,0 240,0 240,0 246,0 252,-6 252,-12 252,-12 252,-24 252,-24 252,-30 246,-36 240,-36"/>
<text text-anchor="middle" x="216.5" y="-14.3" font-family="Inter,Arial" font-size="14.00" fill="#d0dce3">num(10)</text>
</g>
<!-- eq1&#45;&gt;categoryValue -->
<g id="edge4" class="edge disabled">
<title>eq1&#45;&gt;categoryValue</title>
<path fill="none" stroke="#d0dce3" d="M216.5,-71.7C216.5,-63.98 216.5,-54.71 216.5,-46.11"/>
<polygon fill="#d0dce3" stroke="#d0dce3" points="220,-46.1 216.5,-36.1 213,-46.1 220,-46.1"/>
</g>
<!-- price -->
<g id="node5" class="node value,disabled">
<title>price</title>
<path fill="#ffffff" stroke="#d0dce3" d="M382.5,-36C382.5,-36 282.5,-36 282.5,-36 276.5,-36 270.5,-30 270.5,-24 270.5,-24 270.5,-12 270.5,-12 270.5,-6 276.5,0 282.5,0 282.5,0 382.5,0 382.5,0 388.5,0 394.5,-6 394.5,-12 394.5,-12 394.5,-24 394.5,-24 394.5,-30 388.5,-36 382.5,-36"/>
<text text-anchor="middle" x="332.5" y="-14.3" font-family="Inter,Arial" font-size="14.00" fill="#d0dce3">variable(&quot;price&quot;)</text>
</g>
<!-- eq2&#45;&gt;price -->
<g id="edge5" class="edge disabled">
<title>eq2&#45;&gt;price</title>
<path fill="none" stroke="#d0dce3" d="M332.5,-71.7C332.5,-63.98 332.5,-54.71 332.5,-46.11"/>
<polygon fill="#d0dce3" stroke="#d0dce3" points="336,-46.1 332.5,-36.1 329,-46.1 336,-46.1"/>
</g>
<!-- priceValue -->
<g id="node7" class="node value,disabled">
<title>priceValue</title>
<path fill="#ffffff" stroke="#d0dce3" d="M466,-36C466,-36 425,-36 425,-36 419,-36 413,-30 413,-24 413,-24 413,-12 413,-12 413,-6 419,0 425,0 425,0 466,0 466,0 472,0 478,-6 478,-12 478,-12 478,-24 478,-24 478,-30 472,-36 466,-36"/>
<text text-anchor="middle" x="445.5" y="-14.3" font-family="Inter,Arial" font-size="14.00" fill="#d0dce3">num(9)</text>
</g>
<!-- eq2&#45;&gt;priceValue -->
<g id="edge6" class="edge disabled">
<title>eq2&#45;&gt;priceValue</title>
<path fill="none" stroke="#d0dce3" d="M360.14,-71.88C374.92,-62.72 393.29,-51.34 409.2,-41.48"/>
<polygon fill="#d0dce3" stroke="#d0dce3" points="411.09,-44.43 417.75,-36.19 407.41,-38.48 411.09,-44.43"/>
</g>
</g>
</svg>
