<?xml version="1.0" encoding="UTF-8" standalone="no"?>
<!DOCTYPE svg PUBLIC "-//W3C//DTD SVG 1.1//EN"
 "http://www.w3.org/Graphics/SVG/1.1/DTD/svg11.dtd">
<!-- Generated by graphviz version 2.43.0 (0)
 -->
<!-- Title: %3 Pages: 1 -->
<svg width="358pt" height="188pt"
 viewBox="0.00 0.00 358.00 188.00" xmlns="http://www.w3.org/2000/svg" xmlns:xlink="http://www.w3.org/1999/xlink">
<g id="graph0" class="graph" transform="scale(1 1) rotate(0) translate(4 184)">
<title>%3</title>
<!-- AND -->
<g id="node1" class="node operator,disabled">
<title>AND</title>
<path fill="#d0dce3" stroke="#d0dce3" d="M208.5,-180C208.5,-180 178.5,-180 178.5,-180 172.5,-180 166.5,-174 166.5,-168 166.5,-168 166.5,-156 166.5,-156 166.5,-150 172.5,-144 178.5,-144 178.5,-144 208.5,-144 208.5,-144 214.5,-144 220.5,-150 220.5,-156 220.5,-156 220.5,-168 220.5,-168 220.5,-174 214.5,-180 208.5,-180"/>
<text text-anchor="middle" x="193.5" y="-158.3" font-family="Inter,Arial" font-size="14.00" fill="#ffffff">AND</text>
</g>
<!-- eq1 -->
<g id="node2" class="node operator,disabled">
<title>eq1</title>
<path fill="#d0dce3" stroke="#d0dce3" d="M173,-108C173,-108 124,-108 124,-108 118,-108 112,-102 112,-96 112,-96 112,-84 112,-84 112,-78 118,-72 124,-72 124,-72 173,-72 173,-72 179,-72 185,-78 185,-84 185,-84 185,-96 185,-96 185,-102 179,-108 173,-108"/>
<text text-anchor="middle" x="148.5" y="-86.3" font-family="Inter,Arial" font-size="14.00" fill="#ffffff">EQUALS</text>
</g>
<!-- AND&#45;&gt;eq1 -->
<g id="edge1" class="edge disabled">
<title>AND&#45;&gt;eq1</title>
<path fill="none" stroke="#d0dce3" d="M182.38,-143.7C177.14,-135.56 170.8,-125.69 165.02,-116.7"/>
<polygon fill="#d0dce3" stroke="#d0dce3" points="167.85,-114.62 159.5,-108.1 161.96,-118.41 167.85,-114.62"/>
</g>
<!-- eq2 -->
<g id="node3" class="node operator,disabled">
<title>eq2</title>
<path fill="#d0dce3" stroke="#d0dce3" d="M264,-108C264,-108 215,-108 215,-108 209,-108 203,-102 203,-96 203,-96 203,-84 203,-84 203,-78 209,-72 215,-72 215,-72 264,-72 264,-72 270,-72 276,-78 276,-84 276,-84 276,-96 276,-96 276,-102 270,-108 264,-108"/>
<text text-anchor="middle" x="239.5" y="-86.3" font-family="Inter,Arial" font-size="14.00" fill="#ffffff">EQUALS</text>
</g>
<!-- AND&#45;&gt;eq2 -->
<g id="edge2" class="edge disabled">
<title>AND&#45;&gt;eq2</title>
<path fill="none" stroke="#d0dce3" d="M204.87,-143.7C210.22,-135.56 216.7,-125.69 222.61,-116.7"/>
<polygon fill="#d0dce3" stroke="#d0dce3" points="225.69,-118.38 228.26,-108.1 219.84,-114.54 225.69,-118.38"/>
</g>
<!-- categoryId -->
<g id="node4" class="node value">
<title>categoryId</title>
<path fill="#ffffff" stroke="#586e75" d="M85,-36C85,-36 12,-36 12,-36 6,-36 0,-30 0,-24 0,-24 0,-12 0,-12 0,-6 6,0 12,0 12,0 85,0 85,0 91,0 97,-6 97,-12 97,-12 97,-24 97,-24 97,-30 91,-36 85,-36"/>
<text text-anchor="middle" x="48.5" y="-14.3" font-family="Inter,Arial" font-size="14.00" fill="#586e75">$categoryId</text>
</g>
<!-- eq1&#45;&gt;categoryId -->
<g id="edge3" class="edge disabled">
<title>eq1&#45;&gt;categoryId</title>
<path fill="none" stroke="#d0dce3" d="M124.04,-71.88C111.2,-62.89 95.3,-51.76 81.41,-42.03"/>
<polygon fill="#d0dce3" stroke="#d0dce3" points="83.26,-39.06 73.06,-36.19 79.24,-44.79 83.26,-39.06"/>
</g>
<!-- categoryValue -->
<g id="node6" class="node value,disabled">
<title>categoryValue</title>
<path fill="#ffffff" stroke="#d0dce3" d="M174,-36C174,-36 127,-36 127,-36 121,-36 115,-30 115,-24 115,-24 115,-12 115,-12 115,-6 121,0 127,0 127,0 174,0 174,0 180,0 186,-6 186,-12 186,-12 186,-24 186,-24 186,-30 180,-36 174,-36"/>
<text text-anchor="middle" x="150.5" y="-14.3" font-family="Inter,Arial" font-size="14.00" fill="#d0dce3">num(10)</text>
</g>
<!-- eq1&#45;&gt;categoryValue -->
<g id="edge4" class="edge disabled">
<title>eq1&#45;&gt;categoryValue</title>
<path fill="none" stroke="#d0dce3" d="M148.99,-71.7C149.21,-63.98 149.48,-54.71 149.73,-46.11"/>
<polygon fill="#d0dce3" stroke="#d0dce3" points="153.22,-46.2 150.01,-36.1 146.23,-46 153.22,-46.2"/>
</g>
<!-- price -->
<g id="node5" class="node value">
<title>price</title>
<path fill="#ffffff" stroke="#586e75" d="M254.5,-36C254.5,-36 220.5,-36 220.5,-36 214.5,-36 208.5,-30 208.5,-24 208.5,-24 208.5,-12 208.5,-12 208.5,-6 214.5,0 220.5,0 220.5,0 254.5,0 254.5,0 260.5,0 266.5,-6 266.5,-12 266.5,-12 266.5,-24 266.5,-24 266.5,-30 260.5,-36 254.5,-36"/>
<text text-anchor="middle" x="237.5" y="-14.3" font-family="Inter,Arial" font-size="14.00" fill="#586e75">$price</text>
</g>
<!-- eq2&#45;&gt;price -->
<g id="edge5" class="edge disabled">
<title>eq2&#45;&gt;price</title>
<path fill="none" stroke="#d0dce3" d="M239.01,-71.7C238.79,-63.98 238.52,-54.71 238.27,-46.11"/>
<polygon fill="#d0dce3" stroke="#d0dce3" points="241.77,-46 237.99,-36.1 234.78,-46.2 241.77,-46"/>
</g>
<!-- priceValue -->
<g id="node7" class="node value,disabled">
<title>priceValue</title>
<path fill="#ffffff" stroke="#d0dce3" d="M338,-36C338,-36 297,-36 297,-36 291,-36 285,-30 285,-24 285,-24 285,-12 285,-12 285,-6 291,0 297,0 297,0 338,0 338,0 344,0 350,-6 350,-12 350,-12 350,-24 350,-24 350,-30 344,-36 338,-36"/>
<text text-anchor="middle" x="317.5" y="-14.3" font-family="Inter,Arial" font-size="14.00" fill="#d0dce3">num(9)</text>
</g>
<!-- eq2&#45;&gt;priceValue -->
<g id="edge6" class="edge disabled">
<title>eq2&#45;&gt;priceValue</title>
<path fill="none" stroke="#d0dce3" d="M258.78,-71.7C268.42,-63.05 280.23,-52.45 290.73,-43.03"/>
<polygon fill="#d0dce3" stroke="#d0dce3" points="293.34,-45.39 298.44,-36.1 288.66,-40.18 293.34,-45.39"/>
</g>
</g>
</svg>
